<svg width="375" height="111" viewBox="0 0 375 111" fill="none" xmlns="http://www.w3.org/2000/svg">
<g clip-path="url(#clip0_643_7841)">
<rect width="375" height="111" rx="20" fill="#D5FFCB"/>
<path d="M80.5838 57.0841L206.55 38.2101C232.622 34.3038 256.273 20.7407 272.811 0.211346C317.217 -54.9093 402.313 -51.2535 441.828 7.47241L505.053 101.436L76.48 389.809L-7.6557 264.769C-27.0994 235.872 -31.7091 199.475 -20.0832 166.643L-6.80739 129.152C6.76478 90.8242 40.3728 63.1091 80.5838 57.0841Z" fill="#3AAE1F" fill-opacity="0.5"/>
<path d="M101.455 96.4855L227.913 81.2465C254.086 78.0925 278.117 65.216 295.24 45.1714C341.215 -8.64775 426.17 -2.54314 463.978 57.2963L524.471 153.041L87.772 428.954L7.27171 301.543C-11.3319 272.099 -14.8916 235.583 -2.32512 203.1L12.0247 166.007C26.6949 128.086 61.0871 101.35 101.455 96.4855Z" fill="#3AAE1F"/>
<path d="M104.85 122.537L231.9 113.464C258.195 111.586 282.824 99.8933 300.901 80.7049C349.438 29.1846 433.996 39.4124 468.85 101.019L524.616 199.592L75.0194 453.947L0.808868 322.773C-16.3411 292.459 -18.1214 255.813 -3.99043 223.98L12.1459 187.628C28.6424 150.465 64.2937 125.433 104.85 122.537Z" fill="#0946BB"/>
<path fill-rule="evenodd" clip-rule="evenodd" d="M0 91V792H375V91C375 102.046 366.046 111 355 111H20C8.95431 111 0 102.046 0 91Z" fill="white"/>
</g>
<defs>
<clipPath id="clip0_643_7841">
<rect width="375" height="111" rx="20" fill="white"/>
</clipPath>
</defs>
</svg>
