<svg width="231" height="126" viewBox="0 0 231 126" fill="none" xmlns="http://www.w3.org/2000/svg">
<path d="M47.2883 92.1894L49.3519 91.3657L51.4565 91.7865C51.4565 91.7865 51.8773 94.1719 51.5967 94.0316L49.4921 93.33L49.0711 94.1719L47.2471 93.6106L47.2883 92.1894Z" fill="#EACDB0"/>
<path d="M16.1678 117.444L17.1223 119.114L17.003 120.188L15.5712 120.426L13.4238 119.114L14.1397 114.581L16.1678 113.984V117.444Z" fill="#59595B"/>
<path d="M17.1221 102.292C17.1221 102.292 14.8554 106.468 17.9573 109.093C21.0593 111.717 26.4279 115.893 26.4279 115.893L16.2872 113.626L15.5713 117.205C15.5713 117.205 30.9614 122.335 31.3193 121.977C31.6773 121.619 35.4948 118.279 35.4948 118.279L27.2629 100.264L18.196 101.338L17.1221 102.292Z" fill="#8E9BA2"/>
<path d="M41.2179 99.6671C40.6764 99.0878 40.1639 98.4841 39.6933 97.8525L36.8641 95.1541L33.0758 86.8759L33.6832 81.509C33.6832 81.509 34.3026 80.8655 35.073 80.0929C34.3429 79.0431 33.489 78.3449 31.7744 78.16C24.5543 77.3807 24.9636 77.8198 22.5089 80.8038C21.5219 82.0038 19.6986 85.4466 19.0684 86.8517C18.3051 88.5534 17.5625 90.2643 16.877 91.9978C16.1121 93.9322 15.4174 95.8951 14.8473 97.8946C14.7839 98.1167 14.5815 98.7324 14.365 99.4768C13.9559 100.884 13.4971 102.749 13.8308 103.289C14.0045 103.739 14.4629 104.218 15.5719 104.44C17.958 104.918 19.8668 104.918 22.4914 103.605C25.1161 102.293 29.4641 103.224 29.4641 103.224C30.1554 103.414 30.8779 103.6 31.6473 103.772C37.2412 105.02 40.1326 101.593 41.0397 100.971C41.8329 100.427 41.2184 99.6687 41.2184 99.6687L41.2179 99.6671Z" fill="#59595B"/>
<path d="M34.8997 58.112L32.3741 55.8671L31.813 54.0429H32.3741L32.7951 54.3237L33.3562 55.1655L35.6013 53.7623L36.3029 54.8848V57.4104L34.8997 58.112Z" fill="#EACDB0"/>
<path d="M31.251 76.2121L37.9858 70.5997L34.1974 57.9718L36.7231 56.5686L44.1594 71.7221L34.478 83.9292L31.251 76.2121Z" fill="#59595B"/>
<path d="M38.5813 118.16L40.9828 119.761V120.861L38.8815 121.262L35.5796 119.661L35.8797 118.16H38.5813Z" fill="#59595B"/>
<path d="M29.9447 77.327C29.1431 77.4242 28.3415 77.5214 27.54 77.6184C27.3921 76.9917 27.2947 76.3532 27.2484 75.7108C26.5435 75.6267 25.7113 75.4505 25.4451 74.7924C25.3612 74.5851 25.3493 74.3569 25.3387 74.1334C25.294 73.2102 25.2493 72.2868 25.2048 71.3637C25.1894 71.0444 25.1754 70.7153 25.2838 70.4144C25.4741 69.8867 25.9986 69.5576 26.5171 69.3436C27.8403 68.7977 29.4071 68.7613 30.6755 69.4249C31.0132 69.6016 31.3343 69.8326 31.5377 70.1548C31.8512 70.6517 31.8397 71.2793 31.8175 71.8662C31.7973 72.408 31.777 72.95 31.7567 73.4917C31.7335 74.115 31.6595 74.8339 31.1415 75.1812C30.8665 75.3657 30.5032 75.4106 30.2692 75.6449C29.8562 76.0586 30.0806 76.759 29.9447 77.327Z" fill="#EACDB0"/>
<path d="M27.0417 103.713L41.6984 96.9238L45.039 101.219L39.3124 118.756L35.4948 118.279L36.5684 107.78C36.5684 107.78 33.3471 110.524 27.6208 110.286C24.9961 107.661 24.9961 107.78 24.9961 107.78L27.0417 103.713Z" fill="#8E9BA2"/>
<path d="M47.183 91.6791L38.3065 89.4849L33.6259 81.5393L30.3286 80.0967L32.9397 93.0102L47.7424 94.4028L47.183 91.6791Z" fill="#59595B"/>
<path d="M24.8732 74.7712L23.1362 80.0703L36.1753 81.8487L36.0657 78.4953L24.8732 74.7712Z" fill="#2E4661"/>
<path d="M31.4384 75.4641L28.6647 76.1344L24.1731 79.1207L22.1455 98.2722L29.9437 97.791L29.457 81.3577L33.7293 79.2177L34.9353 78.0061L31.4384 75.4641Z" fill="#344E67"/>
<path d="M29.8875 69.1264L25.2057 70.4387L25.354 74.4949L22.0833 73.2119L21.1914 66.2251L30.9286 61.5963L35.0452 66.6711L31.4386 69.9614L29.8875 69.1264Z" fill="#363636"/>
<path d="M30.4788 16.4942C30.6881 17.103 30.4983 17.7625 30.2696 18.3459C28.7476 22.2268 24.1816 27.1233 19.9531 25.8341C20.3537 25.6503 21.4485 25.3877 22.2615 24.9881C24.192 24.0391 25.0048 21.622 25.6332 19.4762C26.0183 18.1607 25.3543 14.846 26.5543 14.07C27.6991 13.3297 30.0614 15.2804 30.4788 16.4942Z" fill="#FFC23B"/>
<path d="M19.4089 21.2495C19.8336 19.0928 20.4567 17.6238 21.3352 15.9322C22.2137 14.2406 23.6194 12.7731 25.4135 12.3032C25.6268 12.2475 25.8511 12.206 26.0692 12.2569C26.3185 12.3152 26.5313 12.487 26.7345 12.654C27.8573 13.5763 29.8463 14.6856 30.389 16.2378C27.2027 16.7508 24.2072 18.66 22.1499 21.2069C20.614 23.1083 20.1416 25.9918 19.9396 26.0407C18.0165 26.5043 19.2089 22.2641 19.4089 21.2495Z" fill="#FFD073"/>
<path d="M5.85995 25.5687C6.07555 26.1752 6.6348 26.573 7.17724 26.8867C10.7859 28.974 17.4081 29.9589 19.912 26.3157C19.4843 26.4216 18.4641 26.8984 17.5794 27.0921C15.4783 27.5526 13.3364 26.1685 11.508 24.8816C10.3872 24.0927 8.84119 21.0862 7.41933 21.2269C6.06242 21.3616 5.43015 24.3592 5.85995 25.5687Z" fill="#FFC23B"/>
<path d="M17.4817 22.391C15.8058 20.9689 14.4031 20.2079 12.662 19.4321C10.9209 18.6563 8.90703 18.3843 7.21084 19.1347C7.00929 19.2239 6.80798 19.3315 6.66909 19.5072C6.51039 19.7083 6.45096 19.9752 6.39614 20.2323C6.09256 21.6532 5.22811 23.7601 5.77078 25.3123C8.58272 23.7283 12.1151 23.3552 15.3113 24.0655C17.6973 24.5958 19.8634 26.5568 20.0518 26.4691C21.8447 25.6337 18.2704 23.0601 17.4817 22.391Z" fill="#FFD073"/>
<path d="M38.1493 19.8903L2.44141 32.3729L12.9695 62.4896L48.6774 50.007L38.1493 19.8903Z" fill="#558AB2"/>
<path d="M40.59 19.0367L0 33.226L2.65863 40.8312L43.2486 26.6419L40.59 19.0367Z" fill="#6194C1"/>
<g opacity="0.1">
<path d="M6.62158 39.4437L40.8075 27.4921L41.7558 30.2043L6.62158 39.4437Z" fill="black"/>
</g>
<path d="M32.7276 55.5792L28.3084 57.1243L17.6478 26.6316C17.5398 26.3224 17.6936 25.9873 17.9917 25.8832L21.332 24.7154C21.6299 24.6113 21.959 24.7774 22.067 25.0865L32.7276 55.5792Z" fill="#FFD073"/>
<path d="M87.8275 26.1236C86.9421 24.994 85.83 22.2095 87.9579 19.7569C88.5579 19.0652 89.0835 18.5425 89.5059 18.1229C90.7445 16.8917 91.0773 16.5607 90.7122 14.7134C90.4777 13.527 90.6433 12.6692 91.2051 12.1636C91.9597 11.4846 93.037 11.7919 93.1572 11.8292L92.7984 12.9887C92.6645 12.9495 92.2239 12.877 92.0152 13.0677C91.8047 13.26 91.7639 13.7741 91.903 14.4783C92.3941 16.9631 91.6725 17.6808 90.3619 18.9836C89.9325 19.4104 89.4458 19.8944 88.8748 20.5524C86.878 22.8539 88.7053 25.2748 88.7843 25.3766L87.8275 26.1236Z" fill="#FFBC57"/>
<path d="M101.04 24.9322L99.8281 24.8672C99.8318 24.7972 99.9325 23.1432 101.017 22.1933C101.573 21.7059 102.269 21.491 103.086 21.555C103.707 21.6036 104.163 21.5059 104.368 21.2798C104.582 21.0427 104.52 20.6712 104.519 20.6675L105.709 20.4301C105.729 20.5266 105.886 21.3929 105.283 22.077C104.808 22.6152 104.038 22.8467 102.991 22.765C102.506 22.7272 102.122 22.8387 101.816 23.1061C101.124 23.7128 101.041 24.92 101.04 24.9322Z" fill="#558AB2"/>
<path d="M82.7705 14.4216L83.4069 13.3881C83.4666 13.4247 84.8714 14.3036 85.1876 15.7101C85.3498 16.4317 85.2061 17.1455 84.7592 17.8328C84.4195 18.3555 84.2877 18.8019 84.3884 19.09C84.4939 19.392 84.8502 19.5143 84.8539 19.5157L84.4936 20.6745C84.3992 20.6459 83.5633 20.3698 83.2508 19.5129C83.0048 18.8385 83.1697 18.0514 83.7418 17.1711C84.0067 16.7636 84.0926 16.3725 84.0035 15.9763C83.8015 15.078 82.7809 14.4278 82.7705 14.4216Z" fill="#8C0303"/>
<path d="M82.8577 7.60755L82.6782 6.40727C82.7476 6.39691 84.3882 6.16358 85.5362 7.03517C86.1254 7.48248 86.4755 8.12097 86.5767 8.93428C86.6536 9.55297 86.8406 9.97909 87.1032 10.1346C87.3785 10.2976 87.7299 10.1613 87.7334 10.1601L88.2047 11.2784C88.1141 11.3173 87.2969 11.6449 86.5057 11.1911C85.8831 10.8339 85.5019 10.1258 85.372 9.084C85.3119 8.60168 85.1255 8.24719 84.8021 8.00189C84.069 7.44539 82.8696 7.60594 82.8577 7.60755Z" fill="#FFBC57"/>
<path d="M71.5169 25.0519L72.5638 25.6657C72.5283 25.7261 71.68 27.1498 70.2807 27.4962C69.5628 27.674 68.846 27.5457 68.1492 27.1138C67.6194 26.7854 67.1703 26.6635 66.8842 26.7702C66.5845 26.8821 66.4698 27.2412 66.4687 27.2447L65.3022 26.9093C65.3287 26.8144 65.5869 25.9725 66.4366 25.6418C67.1055 25.3813 67.8961 25.5291 68.7886 26.0822C69.2018 26.3381 69.5948 26.4157 69.9887 26.318C70.8828 26.0967 71.5109 25.0622 71.5169 25.0519Z" fill="#FFBC57"/>
<path d="M91.8586 21.7737L90.9834 24.8777L92.1515 25.2071L93.0268 22.1031L91.8586 21.7737Z" fill="#8C0303"/>
<path d="M99.105 19.3136L96.4722 21.1763L97.1732 22.1671L99.806 20.3044L99.105 19.3136Z" fill="#FFBC57"/>
<path d="M94.6055 43.1346L91.9727 44.9969L92.6735 45.9878L95.3064 44.1254L94.6055 43.1346Z" fill="#FFBC57"/>
<path d="M120.211 30.897L118.756 28.0065L119.872 27.468L121.327 30.3587L120.211 30.897Z" fill="#8C0303"/>
<path d="M59.1583 19.6702L58.4248 20.6375L60.9944 22.5863L61.728 21.6191L59.1583 19.6702Z" fill="#8C0303"/>
<path d="M78.1577 17.3091L77.1953 18.049L79.1609 20.6057L80.1233 19.8658L78.1577 17.3091Z" fill="#558AB2"/>
<path d="M104 29.8052L101.173 31.3557L101.756 32.4198L104.584 30.8693L104 29.8052Z" fill="#8C0303"/>
<path d="M100.846 15.3249L99.6333 15.2766C99.6377 15.1683 99.7754 12.616 102.932 11.8335C104.105 11.5426 104.08 11.3021 104.025 10.7754C103.978 10.3276 103.906 9.65109 104.575 9.1333L105.318 10.0931C105.206 10.1799 105.188 10.2332 105.232 10.6487C105.324 11.5283 105.253 12.5089 103.224 13.0119C100.942 13.5774 100.847 15.3077 100.846 15.3249Z" fill="#8C0303"/>
<path d="M119.519 17.289L118.437 16.7397C118.736 16.1449 118.891 15.3904 118.75 15.2172C118.708 15.1658 118.447 15.0741 117.756 15.2639C117.27 15.3975 116.571 15.5249 116.113 15.0895C115.591 14.5939 115.768 13.7958 115.972 12.8719C116.229 11.7059 116.55 10.2548 115.633 9.22751C115.143 8.67816 114.616 8.40636 114.024 8.39623C112.743 8.37435 111.573 9.58153 111.561 9.59374L110.681 8.75832C110.743 8.6929 112.219 7.1561 114.037 7.18259C114.977 7.19641 115.818 7.61263 116.539 8.41949C117.869 9.90999 117.441 11.8499 117.157 13.1335C117.079 13.4869 116.977 13.9515 116.981 14.1772C117.061 14.1747 117.203 14.1574 117.435 14.0936C118.5 13.8011 119.259 13.9208 119.69 14.4497C120.436 15.363 119.679 16.9751 119.519 17.289Z" fill="#558AB2"/>
<path d="M69.3658 20.0638C69.3358 20.0113 68.6404 18.7626 69.2135 17.5607C69.6403 16.6652 70.616 16.0852 72.1134 15.8371C72.7349 15.7342 73.1419 15.5612 73.2902 15.3371C73.465 15.0727 73.345 14.5784 73.2184 14.0553C72.9993 13.1521 72.6685 11.7876 74.1328 10.9996C74.9712 10.5486 76.3071 10.3086 77.9105 11.7277C78.7833 12.5003 79.3372 13.4281 79.3602 13.467L78.3164 14.0859C78.2984 14.056 76.5105 11.0987 74.7079 12.0684C74.1213 12.384 74.1542 12.764 74.3979 13.7692C74.572 14.4872 74.7692 15.3009 74.3025 16.0067C73.9536 16.5341 73.3024 16.8704 72.3117 17.0347C71.2485 17.2109 70.5568 17.5713 70.312 18.0772C70.0086 18.7032 70.4186 19.4599 70.4225 19.4675L69.3658 20.0638Z" fill="#558AB2"/>
<path d="M61.9314 53.998L70.4875 52.8839L76.9074 44.8385L79.1161 46.8864L72.4294 56.525L63.7036 58.6826L60.8359 56.2956L61.0144 53.9674L61.9314 53.998Z" fill="#BAC6A7"/>
<path d="M49.1988 119.769L48.9062 120.909L50.7886 122.671L52.1685 121.842L51.3736 120.39L49.4913 118.628L49.1988 119.769Z" fill="#514943"/>
<path d="M54.6117 84.3625L53.7235 87.8266L55.045 100.39L49.1797 119.369L51.2207 120.438L59.7694 102.336L61.5054 96.9559L63.2401 85.2735L54.6117 84.3625Z" fill="#6B5848"/>
<path d="M70.5205 87.6222L69.2143 120.829L67.142 121.034L64.6841 100.076L59.4492 85.7146L70.5205 87.6222Z" fill="#6B5848"/>
<path d="M67.1284 120.774L67.2452 121.95L69.6029 122.905L70.6065 121.617L69.3691 120.552L67.1284 120.774Z" fill="#514943"/>
<path d="M53.0513 80.6231C54.83 68.9354 54.1947 60.4236 54.2869 58.0864C54.379 55.7492 56.0195 54.5364 56.0201 54.536C56.7399 54.3757 57.3665 53.9122 58.0934 53.7293C63.0111 52.492 65.6931 56.2469 67.5339 60.2967C69.802 65.2864 71.7076 70.4427 73.2481 75.7027C74.6002 80.319 75.955 84.9769 76.5221 89.7676C76.7561 91.7444 76.9512 93.6191 74.787 94.4911C71.3381 95.8807 67.4625 95.8503 63.82 96.296C59.6357 96.8078 55.4457 97.1819 51.2338 97.357C49.0348 97.4484 51.2727 92.311 53.0513 80.6231Z" fill="#BAC6A7"/>
<path d="M57.0879 54.1608C57.0879 54.1608 57.2429 57.8424 59.4521 57.9588C61.6612 58.0751 62.94 57.0287 62.8237 55.7496C62.7074 54.4708 62.0756 53.8823 62.0756 53.8823C62.0756 53.8823 59.3744 52.688 57.0879 54.1608Z" fill="#FFF5CC"/>
<path d="M87.0507 24.9735L75.9609 21.2506L77.8179 52.4763L98.1404 28.6964L87.0507 24.9735Z" fill="#B26650"/>
<path d="M75.8278 53.3694L69.4751 61.2277L57.5002 55.6755L54.492 56.332L54.3633 57.8381L54.8302 61.7442L70.0017 67.2059L73.6431 65.3853L78.4978 54.4616L75.8278 53.3694Z" fill="#C9D6B5"/>
<path d="M64.9168 50.5177C63.7391 49.9681 63.3037 48.8604 63.1448 48.1986C63.1183 48.0118 63.0884 47.8349 63.0559 47.6677C63.0559 47.6668 63.0557 47.6647 63.0557 47.6647L63.0554 47.6659C62.6015 45.3379 61.6246 44.8737 61.6246 44.8737L61.6239 44.874C61.28 44.5927 60.8767 44.385 60.445 44.2806C59.7817 44.8767 59.3678 45.7428 59.3199 46.6344L59.2227 46.6356C59.629 46.6453 60.0293 46.7383 60.402 46.8982C60.6864 48.909 61.1197 52.1088 61.1354 53.0433C61.1586 54.4382 61.4885 54.4642 62.4264 54.7699C63.0098 54.9601 63.6128 54.7284 63.986 54.5262H63.9862C65.2648 54.2337 66.6609 51.3314 64.9168 50.5177Z" fill="#563E2E"/>
<path d="M62.1412 47.6676C60.6673 44.4574 56.6101 46.0833 56.0827 49.1104C55.7825 50.8319 56.6958 53.8235 58.7511 53.8516C58.8545 54.1426 59.0321 54.6919 59.3092 54.8347C59.6093 54.9895 60.3349 54.5908 60.6217 54.4445C60.7011 54.404 60.7834 54.3579 60.8292 54.2812C60.8865 54.1854 60.8483 53.9763 60.7933 53.7478C61.0128 53.677 61.2309 53.5766 61.4446 53.4421C62.342 52.878 62.8248 51.7959 62.872 50.7354C62.919 49.6757 62.5841 48.6322 62.1412 47.6676Z" fill="#EACDB0"/>
<path d="M59.3957 47.1023C61.7112 46.2676 61.0488 44.4567 61.0488 44.4567C59.1513 41.7336 55.0925 43.5017 55.0925 43.5017C55.0925 43.5017 52.973 44.6681 52.5727 47.1972C52.5363 47.4268 52.5093 47.6429 52.4893 47.8474C52.4004 48.4889 52.317 49.853 52.3672 50.52C52.3737 51.3356 52.3184 51.952 51.7204 52.7174C50.6279 54.116 51.9625 54.7335 52.5015 55.1447C53.0405 55.5561 51.9846 58.7135 55.9789 57.5231C58.5865 56.1773 59.1978 56.1724 58.2322 54.7554C57.8202 54.0709 56.879 53.1375 56.4524 51.9235C55.7794 50.0084 57.0801 47.937 59.3957 47.1023Z" fill="#563E2E"/>
<path d="M76.1211 53.4895L77.1629 51.4275L79.5904 51.0634V53.9762L78.2208 54.3484L76.1211 53.4895Z" fill="#EACDB0"/>
<path d="M59.0763 43.0392C59.0763 43.0392 57.0323 46.5544 52.4352 48.3931L49.4727 37.7689L59.0763 43.0392Z" fill="#FFBC57"/>
<path d="M59.0752 43.081L51.8344 46.2389L51.4502 44.8605L57.754 42.3137L59.0752 43.081Z" fill="#B26650"/>
<path d="M56.558 41.657L51.1218 43.6817L50.7798 42.4556L55.123 40.8695L56.558 41.657Z" fill="#B26650"/>
<path d="M53.6686 40.0715L50.4298 41.2018L50.1147 40.0715L52.4029 39.3768L53.6686 40.0715Z" fill="#B26650"/>
<path d="M51.3559 38.8024L49.8684 39.1885L49.4727 37.7689L51.3559 38.8024Z" fill="#B26650"/>
<g opacity="0.1">
<path d="M58.6374 43.6816C58.6374 43.6816 53.7179 46.7571 50.9824 43.1823L52.4354 48.3929C52.4354 48.3929 56.156 47.1429 58.6374 43.6816Z" fill="black"/>
</g>
<path d="M47.6563 38.8325L49.0072 38.3585L48.2701 39.4125L49.0194 39.8412L49.6169 38.5347L49.7894 39.9483L50.6334 39.7665L50.2105 38.4131L51.1931 38.9166L51.5156 38.1157L50.3701 37.7711L51.2134 37.1658L50.6486 36.5131L49.7851 37.4091L49.9009 36.1342H49.0376L49.1496 37.3651L48.2319 36.537L47.7139 37.2278L48.6504 37.8057L47.4453 37.9955L47.6563 38.8325Z" fill="#8C0303"/>
<path d="M76.2197 26.6162L83.7254 23.8571L90.0145 25.9683L76.568 31.4595L76.2197 26.6162Z" fill="#8E3976"/>
<path d="M76.7568 34.1943L93.997 27.3054L98.1485 28.7121L76.992 37.5125L76.7568 34.1943Z" fill="#8E3976"/>
<path d="M77.1084 40.5467L93.6387 33.964L86.4365 42.3913L77.4776 46.2793L77.1084 40.5467Z" fill="#8E3976"/>
<path d="M62.8217 33.5908L59.6045 33.8156L59.6891 35.0263L62.9063 34.8015L62.8217 33.5908Z" fill="#8C0303"/>
<path d="M76.6217 32.3681L91.3235 26.408L90.047 26.001L76.5625 31.459L76.6217 32.3681Z" fill="#FFC23B"/>
<path d="M76.9922 37.5125L98.1487 28.712L96.684 30.4009L77.0781 38.7231L76.9922 37.5125Z" fill="#FFC23B"/>
<path d="M77.4775 46.2793L86.4364 42.3912C86.4364 42.3912 85.0295 44.1118 85.0127 44.0573C84.9959 44.0024 77.566 47.3278 77.566 47.3278L77.4775 46.2793Z" fill="#FFC23B"/>
<g opacity="0.1">
<path d="M98.1486 28.712C98.1486 28.712 88.1721 39.2736 76.957 38.001L77.8056 52.4214L98.1486 28.712Z" fill="black"/>
</g>
<path d="M70.1943 44.9102L70.2291 42.7453L72.1925 42.3245L73.0339 43.8672L72.473 44.4281L71.6316 43.3062L71.3168 44.2874L71.2981 45.9322L70.1943 44.9102Z" fill="#EACDB0"/>
<path d="M171.344 41.3351C171.344 41.3351 169.89 42.0662 169.641 45.8999C169.391 49.7334 168.501 52.0867 168.501 52.0867C168.501 52.0867 169.645 52.95 170.7 52.5782C171.756 52.2065 172.129 52.1682 172.118 50.5858C172.107 49.0034 173.017 41.6711 173.017 41.6711L171.344 41.3351Z" fill="#5D4C3E"/>
<path d="M174.115 43.2684C172.623 43.3394 171.225 44.3952 170.746 45.8127C170.138 44.9238 169.992 43.7353 170.366 42.7246C170.74 41.7139 171.626 40.9079 172.666 40.6306C173.434 41.2889 173.927 42.2598 174.005 43.2696L174.115 43.2684Z" fill="#5D4C3E"/>
<path d="M175.923 52.335L180.582 54.0441L188.276 60.119L191.462 48.825L195.684 49.4805L193.312 63.2361L188.986 67.3296L176.099 60.6223L175.923 52.335Z" fill="#DEA5B2"/>
<path d="M181.911 121.586L182.061 122.79L179.908 124.346L178.606 123.318L179.607 121.938L181.76 120.382L181.911 121.586Z" fill="#3A332D"/>
<path d="M180.985 84.697L181.442 88.3527L178.457 101.02L181.983 121.179L179.758 122.007L173.376 102.394L172.301 96.6705L172.048 84.5056L180.985 84.697Z" fill="#59595B"/>
<path d="M163.828 89.1887L169.347 122.977L171.492 122.927L171.364 101.188L174.908 85.8435L163.828 89.1887Z" fill="#59595B"/>
<path d="M171.473 122.659L171.502 123.877L169.211 125.149L168.023 123.959L169.154 122.714L171.473 122.659Z" fill="#3A332D"/>
<path d="M180.76 80.2043C178.637 67.9154 179.079 58.919 178.926 56.4551C178.773 53.9912 177.053 52.7515 177.053 52.7515C176.307 52.5995 175.65 52.1257 174.897 51.9504C169.801 50.7647 167.132 54.7916 165.337 59.1095C163.125 64.4295 161.291 69.9164 159.836 75.5039C158.558 80.4077 157.279 85.3553 156.814 90.4241C156.623 92.5155 156.468 94.4982 158.719 95.3657C162.306 96.7479 166.297 96.6217 170.06 97.0034C174.382 97.4417 178.707 97.7342 183.049 97.8165C185.316 97.8595 182.883 92.4932 180.76 80.2043Z" fill="#DEA5B2"/>
<path d="M194.859 49.3523L196.713 47.4064L195.988 44.0795L194.155 44.1228L193.685 47.0464L192.768 47.6273L192.801 49.0328L194.859 49.3523Z" fill="#E0CBAF"/>
<path d="M172.437 51.7555L167.606 52.7326L157.914 62.5621L146.368 62.4032L145.805 65.9764L159.338 68.0298L170.274 60.652L172.437 51.7555Z" fill="#DEA5B2"/>
<path d="M171.247 52.0411L170.664 65.1766L177.093 52.5515L175.116 51.8973L173.705 51.5101L171.247 52.0411Z" fill="#E3E3E4"/>
<path d="M146.26 63.2943L144.107 62.0251L141.398 62.7707L141.433 64.2304L145.995 64.9799L146.26 63.2943Z" fill="#E0CBAF"/>
<path d="M170.834 44.5164C172.419 40.8368 177.063 42.5719 177.742 45.9903C178.129 47.9344 177.173 51.3512 174.843 51.438C174.734 51.7706 174.547 52.3983 174.237 52.5678C173.9 52.7511 173.067 52.3186 172.738 52.1606C172.647 52.1168 172.553 52.0666 172.498 51.9809C172.431 51.8738 172.468 51.6356 172.525 51.3751C172.274 51.3007 172.024 51.1927 171.778 51.046C170.745 50.4303 170.169 49.2162 170.087 48.015C170.005 46.814 170.357 45.622 170.834 44.5164Z" fill="#E0CBAF"/>
<path d="M172.76 40.6417C172.76 40.6417 171.832 42.6219 174.365 43.7957C176.898 44.9695 178.161 47.4396 177.21 49.5364C176.259 51.6331 173.929 52.8138 174.842 53.6255C175.754 54.4372 179.703 54.712 179.703 54.712C179.703 54.712 183.752 47.4737 181.377 43.4182C179.002 39.3629 174.513 38.238 172.76 40.6417Z" fill="#5D4C3E"/>
<path d="M147.895 49.1947C147.743 49.162 144.841 49.8873 144.841 49.8873L137.346 55.5697H127.069L126.585 58.4712L139.038 60.8893L147.895 49.1947Z" fill="#A1BDCC"/>
<path d="M132.557 77.7244L130.558 96.2671L131.754 120.538L134.444 120.797L138.266 98.8754L144.071 77.1444L132.557 77.7244Z" fill="#8C9498"/>
<path d="M153.323 120.851L151.274 123.11L152.001 124.186L156.143 122.709L155.857 120.52L153.323 120.851Z" fill="#3A3029"/>
<path d="M143.427 86.0285L147.68 103.699L152.538 121.232L156.119 120.59L153.57 102.077L153.496 84.6068L148.092 82.8984L143.427 86.0285Z" fill="#8C9498"/>
<path d="M148.437 48.954C148.437 48.954 143.361 50.7377 138.247 59.376C133.039 68.1725 130.293 80.8516 130.293 80.8516C130.293 80.8516 153.996 91.2678 154.52 87.0151C154.52 87.0151 163.715 53.915 152.936 50.3339C152.446 50.1713 148.759 48.8146 148.437 48.954Z" fill="#A1BDCC"/>
<path d="M149.727 49.1947C146.714 53.2786 143.759 58.1801 140.701 62.2301C138.888 64.6299 138.171 67.4322 137.289 70.252C136.412 73.0554 135.536 75.859 134.659 78.6624C134.289 79.8468 133.918 81.0314 133.548 82.2158L143.622 85.9044C143.892 82.3094 144.074 78.7071 144.411 75.1176C144.722 71.807 144.869 68.0391 146.263 64.9734C146.942 63.481 147.643 61.9956 148.33 60.5056C149.589 57.7717 150.568 54.8962 151.851 52.1734C151.941 51.9831 152.145 50.248 152.132 50.0315L149.727 49.1947Z" fill="white"/>
<path d="M149.481 49.7944C150.312 49.93 151.143 50.0657 151.974 50.2014C152.155 49.5546 152.284 48.8933 152.36 48.2258C153.098 48.1684 153.973 48.0205 154.279 47.3461C154.375 47.1337 154.397 46.8963 154.418 46.6641C154.505 45.7038 154.591 44.7436 154.677 43.7831C154.707 43.4509 154.735 43.1084 154.635 42.7903C154.46 42.2322 153.927 41.8664 153.396 41.6214C152.04 40.9955 150.409 40.8903 149.059 41.5274C148.699 41.6969 148.354 41.9243 148.129 42.2511C147.781 42.7553 147.766 43.4101 147.763 44.0228C147.761 44.5885 147.759 45.154 147.757 45.7197C147.754 46.3702 147.801 47.1229 148.326 47.5069C148.604 47.7107 148.981 47.7734 149.215 48.0277C149.627 48.4761 149.364 49.1966 149.481 49.7944Z" fill="#EACDB0"/>
<path d="M146.594 42.5391L147.804 45.8714L147.843 42.9546L146.594 42.5391Z" fill="#3A3029"/>
<path d="M144 38.5142C144.151 37.8803 144.409 37.2667 144.687 36.7256C145.165 35.7962 146.446 35.6615 147.473 35.8589C149.689 36.285 152.051 35.8554 153.975 37.1808C155.074 37.9384 156.678 38.4755 157.615 39.381C158.006 39.7589 158.266 40.2562 158.434 40.7736C159.016 42.566 158.459 44.6752 157.069 45.9471C156.757 46.2325 156.409 46.4767 156.052 46.7033C155.313 47.172 154.423 47.7571 153.573 47.7771C153.742 47.0668 154.978 45.0136 154.59 44.291C153.975 43.1442 151.946 42.9459 150.819 42.8873C149.59 42.8235 148.333 43.3708 147.133 43.2393C146.269 43.1446 145.319 42.4552 144.727 41.8379C143.8 40.871 143.727 39.6597 144 38.5142Z" fill="#3A3029"/>
<path d="M131.728 120.483L129.245 121.95L129.561 123.053L133.815 122.629L134.044 120.759L131.728 120.483Z" fill="#3A3029"/>
<path d="M138.969 89.0821L85.0354 93.3191C82.4135 93.5251 80.121 91.5665 79.9151 88.9446L77.4922 58.102L140.92 53.1191L143.343 83.9618C143.549 86.5837 141.591 88.8762 138.969 89.0821Z" fill="#FFD073"/>
<path d="M84.4673 93.3637L139.672 89.027C141.906 88.8515 143.574 86.8987 143.399 84.6649L141.534 60.9346C141.534 60.9346 139.672 89.0267 84.4673 93.3637Z" fill="#FFD373"/>
<path d="M141.47 60.1967L78.0439 65.1785L78.3457 69.0205L141.772 64.0388L141.47 60.1967Z" fill="#FFF4DB"/>
<path d="M143.101 80.9569L79.6748 85.9386L79.9766 89.7806L143.403 84.7989L143.101 80.9569Z" fill="#FFF4DB"/>
<path d="M142.053 67.6112L78.6265 72.5929L79.3729 82.0967L142.799 77.115L142.053 67.6112Z" fill="#FFBC57"/>
<path d="M143.252 58.6179C143.14 59.0869 142.889 59.528 142.398 59.9294C141.909 60.33 141.302 60.5728 140.671 60.6223C140.221 60.6578 139.764 60.5949 139.341 60.4369C138.854 60.2556 138.395 59.9481 138.067 59.5427C137.785 59.1928 137.595 58.7768 137.294 58.4405C137.235 58.3737 137.172 58.3097 137.106 58.2487C136.86 58.0197 136.573 57.8352 136.257 57.7178C135.909 57.5881 135.534 57.5439 135.164 57.5729C134.659 57.6125 134.175 57.8145 133.788 58.142C133.375 58.4912 133.15 58.9643 132.939 59.4499C132.725 59.9435 132.437 60.4012 132.017 60.7451C131.527 61.1456 130.92 61.3884 130.289 61.4379C129.01 61.5383 127.851 60.8512 127.288 59.7836C127.288 59.7836 126.579 58.2473 124.827 58.385C124.321 58.4249 123.837 58.6267 123.45 58.9542C123.038 59.3034 122.812 59.7765 122.602 60.262C122.388 60.7557 122.099 61.2133 121.679 61.557C121.19 61.9575 120.583 62.2003 119.952 62.2498C118.638 62.353 117.555 61.557 116.882 60.4919C116.527 59.9317 116.027 59.4646 115.378 59.2806C115.087 59.1984 114.783 59.1739 114.482 59.1977C113.976 59.2373 113.492 59.4393 113.105 59.7668C112.693 60.116 112.467 60.5891 112.257 61.0747C112.043 61.5685 111.755 62.026 111.334 62.3698C110.845 62.7704 110.238 63.0132 109.607 63.0627C108.328 63.1631 107.169 62.476 106.606 61.4084C106.606 61.4084 105.897 59.8721 104.145 60.0098C103.639 60.0494 103.155 60.2514 102.768 60.579C102.355 60.9282 102.13 61.4013 101.919 61.8868C101.705 62.3804 101.417 62.8381 100.997 63.182C100.507 63.5826 99.8999 63.8253 99.2697 63.8749C98.8192 63.9103 98.3627 63.8474 97.9391 63.6894C97.4526 63.5082 96.9933 63.2007 96.6655 62.7953C96.3827 62.4454 96.1931 62.0294 95.8928 61.6931C95.8331 61.6263 95.7705 61.5623 95.7048 61.5012C95.4588 61.2721 95.1711 61.0878 94.8556 60.9703C94.5073 60.8406 94.1326 60.7964 93.7626 60.8254C93.257 60.8651 92.7729 61.0671 92.3859 61.3946C91.9734 61.7438 91.7481 62.2167 91.5374 62.7024C91.3234 63.1963 91.035 63.6537 90.6149 63.9976C90.1254 64.3982 89.518 64.6409 88.8878 64.6905C87.6085 64.7909 86.449 64.1038 85.8865 63.0362C85.8865 63.0362 85.1776 61.4999 83.4252 61.6376C82.9196 61.6775 82.4354 61.8792 82.0485 62.2068C81.6359 62.556 81.4107 63.0288 81.1999 63.5146C80.9859 64.0082 80.6975 64.4659 80.2774 64.8098C79.788 65.2103 79.1808 65.4531 78.5504 65.5026C77.808 65.5609 76.9251 65.284 76.3186 64.8621C75.5542 64.3302 75.535 63.7231 75.4717 62.8678C75.3694 61.4872 75.2549 60.1075 75.1465 58.7275C74.9709 56.494 76.6395 54.541 78.8731 54.3655L138.529 49.679C140.757 49.504 142.707 51.1643 142.89 53.3916C142.951 54.1344 143.012 54.877 143.073 55.6201C143.159 56.669 143.473 57.6975 143.252 58.6179Z" fill="#44250C"/>
<path d="M141.779 64.0388L141.535 60.9343C141.535 60.9343 141.454 62.1496 140.83 64.1132L141.779 64.0388Z" fill="#EDE3CC"/>
<path d="M115.312 87.0069L143.406 84.7999C143.404 84.7549 143.402 84.71 143.399 84.6649L143.108 80.9576L124.894 82.3885C122.17 84.0241 118.999 85.5878 115.312 87.0069Z" fill="#EDE3CC"/>
<path d="M130.998 78.043L142.806 77.1154L142.059 67.6113L139.294 67.8285C137.776 70.8164 135.236 74.4493 130.998 78.043Z" fill="#E3A74D"/>
<path d="M105.817 52.1916L105.131 43.4513C105.131 43.4513 104.779 40.9013 107.335 40.6246C109.89 40.348 109.084 39.7291 110.069 39.7275C111.054 39.7259 111.43 42.5772 111.519 43.7074C111.608 44.8377 110.64 45.0653 110.158 44.7241C110.158 44.7241 109.915 44.5159 109.986 45.42C110.057 46.3243 110.489 51.8245 110.489 51.8245L105.817 52.1916Z" fill="#FFD073"/>
<path d="M109.932 45.308C109.959 45.1472 109.194 50.2547 105.815 52.1915C110.444 51.8278 110.444 51.8278 110.444 51.8278L109.932 45.308Z" fill="#EBC167"/>
<path d="M106.918 39.9156C106.918 39.9156 104.598 40.0978 104.391 37.4582C104.177 34.7386 108.47 33.0332 109.058 31.2969C109.646 29.5606 113.521 39.9601 106.918 39.9156Z" fill="#E27513"/>
<path d="M110.273 49.631L105.815 52.1917L110.446 51.828L110.273 49.631Z" fill="#8C0303"/>
<path d="M105.518 47.7941L109.977 45.2571L110.148 47.4304L105.688 49.9675L105.518 47.7941Z" fill="#8C0303"/>
<path d="M109.688 41.5837C109.653 41.3586 109.537 41.2223 109.406 41.1396L105.184 43.542L105.354 45.7152L109.664 43.2633C109.643 42.6934 109.712 42.1148 109.702 41.755L109.688 41.5837Z" fill="#8C0303"/>
<path d="M111.21 43.4013C111.21 43.4013 111.19 44.3535 110.15 44.4353C110.15 44.4353 110.645 44.6817 111.008 44.4629C111.482 44.178 111.32 43.5828 111.21 43.4013Z" fill="#FFEABD"/>
<path d="M106.835 39.7518C106.835 39.7518 105.838 39.1647 106.411 37.9787C106.946 36.869 108.784 35.5104 108.784 35.5104C108.784 35.5104 109.192 40.7077 106.835 39.7518Z" fill="#FFC303"/>
<path d="M154.755 51.3381C154.755 51.3381 152.537 52.1086 152.377 52.5092C152.216 52.9097 144.72 64.637 144.72 64.637L129.243 68.3602L129.971 71.891L144.237 70.3194L149.435 69.9566L157.777 57.8668L157.5 53.6134L154.755 51.3381Z" fill="#ABC9D9"/>
<path d="M129.363 69.05L124.289 69.4732L125.207 70.5576L129.85 71.4075L129.363 69.05Z" fill="#EACDB0"/>
<path d="M150.765 36.176C150.765 36.176 153.184 40.3361 158.624 42.5123L162.13 29.9387L150.765 36.176Z" fill="#FFBC57"/>
<path d="M150.766 36.2258L159.335 39.963L159.79 38.3318L152.329 35.3174L150.766 36.2258Z" fill="#B26650"/>
<path d="M153.746 34.5403L160.179 36.9365L160.584 35.4854L155.444 33.6084L153.746 34.5403Z" fill="#B26650"/>
<path d="M157.165 32.664L160.998 34.0018L161.371 32.664L158.663 31.8419L157.165 32.664Z" fill="#B26650"/>
<path d="M159.901 31.1621L161.662 31.6189L162.13 29.939L159.901 31.1621Z" fill="#B26650"/>
<g opacity="0.1">
<path d="M151.284 36.9366C151.284 36.9366 157.106 40.5762 160.344 36.3456L158.624 42.5124C158.624 42.5124 154.221 41.0327 151.284 36.9366Z" fill="black"/>
</g>
<path d="M164.529 30.2072L163.103 29.9826L164.212 29.2987L163.599 28.4813L162.513 29.4613L162.645 28.0045H161.623L161.761 29.5134L160.739 28.4529L160.07 29.2255L161.068 29.9418L159.712 30.3495L160.094 31.2973L161.257 30.7015L160.757 32.3032L161.755 32.5183L161.96 30.8454L162.667 32.3917L163.553 31.8842L162.681 30.6367L164.28 31.1978L164.529 30.2072Z" fill="#8C0303"/>
<path d="M175.111 40.0656C175.111 40.0656 177.123 43.5246 181.646 45.3341L184.561 34.8796L175.111 40.0656Z" fill="#FFBC57"/>
<path d="M175.112 40.1068L182.237 43.2143L182.616 41.8578L176.413 39.3516L175.112 40.1068Z" fill="#B26650"/>
<path d="M177.59 38.7055L182.939 40.6979L183.276 39.4914L179.002 37.9307L177.59 38.7055Z" fill="#B26650"/>
<path d="M180.433 37.1454L183.62 38.2577L183.93 37.1454L181.678 36.462L180.433 37.1454Z" fill="#B26650"/>
<path d="M182.708 35.8966L184.172 36.2764L184.562 34.8796L182.708 35.8966Z" fill="#B26650"/>
<g opacity="0.1">
<path d="M175.543 40.698C175.543 40.698 180.384 43.7241 183.076 40.2067L181.646 45.3342C181.646 45.3342 177.985 44.1039 175.543 40.698Z" fill="black"/>
</g>
<path d="M186.556 35.1026L185.371 34.9161L186.292 34.3474L185.782 33.6676L184.879 34.4826L184.99 33.2712H184.14L184.254 34.5259L183.404 33.6442L182.849 34.2866L183.679 34.8822L182.551 35.2213L182.869 36.0092L183.836 35.5138L183.42 36.8456L184.25 37.0246L184.42 35.6336L185.008 36.9191L185.745 36.4971L185.02 35.4599L186.349 35.9263L186.556 35.1026Z" fill="#8C0303"/>
<path d="M224.767 21.709C228.209 16.4601 227.288 9.77095 222.71 6.7683C218.132 3.76566 211.629 5.5866 208.187 10.8355C204.745 16.0844 205.666 22.7736 210.244 25.7762C214.823 28.7789 221.325 26.9579 224.767 21.709Z" fill="#CF8069"/>
<path d="M207.92 18.5938C210.535 12.8878 208.621 6.41265 203.644 4.1311C198.667 1.84955 192.512 4.62561 189.896 10.3316C187.281 16.0376 189.195 22.5128 194.172 24.7943C199.149 27.0759 205.304 24.2998 207.92 18.5938Z" fill="#C3DAE5"/>
<path d="M219.908 49.5321C225.79 47.3401 229.008 41.4042 227.096 36.2739C225.184 31.1435 218.866 28.7615 212.985 30.9535C207.103 33.1454 203.885 39.0813 205.797 44.2117C207.709 49.342 214.027 51.724 219.908 49.5321Z" fill="#FFC23B"/>
<path d="M193.126 24.2152C193.126 24.2152 191.745 25.2289 191.703 25.6104C191.662 25.9918 192.223 26.5158 192.181 26.8972C192.14 27.2787 193.317 26.7503 193.317 26.7503L193.805 24.6167L193.126 24.2152Z" fill="#B6CCD6"/>
<path d="M209.492 25.2178C209.492 25.2178 207.729 25.8828 207.909 26.3653C208.088 26.8479 208.929 27.634 209.2 27.6248C209.471 27.6156 209.801 25.4596 209.801 25.4596L209.492 25.2178Z" fill="#C27862"/>
<path d="M205.265 41.5299C205.265 41.5299 203.665 40.9198 203.52 41.509C203.376 42.0982 203.291 42.952 203.897 42.9258C204.503 42.8993 205.295 41.9752 205.295 41.9752L205.265 41.5299Z" fill="#FFC23B"/>
<path d="M206.264 41.2197C205.933 40.8152 205.623 40.3999 205.334 39.9761C205.153 41.386 205.292 42.826 205.807 44.2078C207.72 49.3383 214.038 51.7202 219.92 49.5281C221.44 48.9615 222.78 48.1438 223.902 47.1556C217.579 48.6634 210.663 46.5826 206.264 41.2197Z" fill="#FFC23B"/>
<path d="M207.235 22.4231C207.93 23.7579 208.937 24.9123 210.241 25.7676C214.819 28.77 221.321 26.9487 224.763 21.6996C225.501 20.5754 226.037 19.3847 226.381 18.1787C221.573 23.2482 214.016 25.0991 207.235 22.4231Z" fill="#C27862"/>
<path d="M208.817 10.7765C208.574 11.6393 208.261 12.4948 207.876 13.3353C204.971 19.6714 198.765 23.4489 192.232 23.5636C192.815 24.0475 193.464 24.4605 194.177 24.7871C199.154 27.0688 205.309 24.2926 207.925 18.5865C209.117 15.9864 209.368 13.2266 208.817 10.7765Z" fill="#B6CCD6"/>
<path d="M203.694 5.89365C203.963 5.99891 204.223 6.11638 204.476 6.24422C203.85 5.69072 203.128 5.24065 202.32 4.92371C198.375 3.37585 193.783 5.53571 191.658 9.7824C194.656 5.94916 199.47 4.23593 203.694 5.89365Z" fill="#D3EBF7"/>
<path d="M221.954 7.99057C222.222 8.09584 222.483 8.21331 222.736 8.34114C222.11 7.78765 221.388 7.33757 220.58 7.02063C216.635 5.47278 212.043 7.63263 209.918 11.8793C212.916 8.04631 217.729 6.33285 221.954 7.99057Z" fill="#E38C73"/>
<path d="M225.57 36.7729C225.719 37.0198 225.854 37.2716 225.977 37.5268C225.817 36.7063 225.519 35.9101 225.071 35.1668C222.883 31.5371 217.925 30.455 213.654 32.531C218.366 31.3151 223.228 32.886 225.57 36.7729Z" fill="#F9DE9A"/>
<path d="M189.655 69.5146C189.611 69.5146 189.568 69.4918 189.545 69.451C189.51 69.3904 189.531 69.3128 189.592 69.278C189.594 69.2766 189.89 69.1 189.978 68.748C190.046 68.4732 189.974 68.1604 189.763 67.8181C189.087 66.7227 188.489 65.1921 189.88 63.0633C189.963 62.9362 190.06 62.7906 190.169 62.6278C191.785 60.2056 196.076 53.7716 193.913 47.9457C191.683 41.9395 193.515 25.9784 193.669 24.6839L193.061 24.3243C193.001 24.2886 192.981 24.211 193.017 24.1509C193.053 24.0908 193.13 24.0707 193.19 24.1064L193.869 24.5079C193.912 24.5335 193.936 24.5826 193.93 24.6325C193.909 24.8023 191.858 41.6845 194.15 47.8575C196.359 53.8045 192.015 60.3168 190.38 62.7685C190.271 62.9306 190.175 63.0755 190.092 63.202C188.787 65.1997 189.302 66.5893 189.978 67.6852C190.228 68.0895 190.31 68.4691 190.223 68.8136C190.107 69.2702 189.733 69.4888 189.718 69.4977C189.698 69.509 189.676 69.5146 189.655 69.5146Z" fill="#969696"/>
<path d="M187.376 66.3338C187.311 66.3338 187.255 66.2843 187.25 66.2184C187.152 65.1255 188.699 63.6748 190.491 61.9952C191.985 60.5955 193.678 59.0087 194.41 57.547C195.867 54.6376 194.631 50.9251 194.492 50.5303C194.421 50.3939 194.374 49.9104 194.239 48.1749C194.238 48.1624 194.239 48.15 194.242 48.138C196.287 38.8318 208.36 26.7053 209.609 25.4702L209.414 25.3173C209.359 25.274 209.35 25.1945 209.393 25.1395C209.436 25.0844 209.516 25.075 209.571 25.1181L209.879 25.3599C209.908 25.3825 209.925 25.4163 209.927 25.453C209.929 25.4896 209.915 25.5251 209.889 25.5506C209.756 25.6789 196.636 38.4837 194.493 48.1744C194.623 49.8485 194.68 50.2718 194.701 50.3785C194.707 50.3872 194.713 50.3969 194.717 50.4075C194.732 50.448 196.219 54.4997 194.636 57.6608C193.884 59.1628 192.247 60.6968 190.664 62.1804C188.993 63.7467 187.415 65.2261 187.502 66.1963C187.508 66.2661 187.457 66.3276 187.387 66.3338C187.383 66.3338 187.379 66.3338 187.376 66.3338Z" fill="#969696"/>
<path d="M192.941 71.9552C192.897 71.9552 192.855 71.9329 192.832 71.8928C191.483 69.6083 192.446 67.9718 194.041 65.2608C194.547 64.4002 195.121 63.425 195.71 62.2797C198.298 57.252 196.538 53.8635 195.661 52.6402C194.505 51.0269 194.14 48.5677 194.186 48.1496C194.189 48.1229 194.2 48.0978 194.218 48.0777C196.616 45.4558 204.817 41.5984 205.165 41.4355C205.201 41.4187 205.243 41.4196 205.278 41.4383C205.313 41.457 205.337 41.4911 205.344 41.5302L205.413 41.9623C205.424 42.0314 205.377 42.0964 205.307 42.1074C205.238 42.1183 205.173 42.0715 205.162 42.0022L205.12 41.7371C203.97 42.285 196.659 45.8246 194.435 48.2164C194.418 48.7033 194.8 51.0051 195.866 52.4926C196.77 53.7539 198.587 57.2435 195.935 62.3956C195.343 63.5473 194.767 64.5258 194.259 65.3891C192.659 68.1093 191.777 69.6079 193.049 71.7638C193.085 71.8242 193.065 71.9018 193.005 71.9373C192.985 71.9497 192.963 71.9552 192.941 71.9552Z" fill="#969696"/>
</svg>
