<svg width="375" height="812" viewBox="0 0 375 812" fill="none" xmlns="http://www.w3.org/2000/svg">
<g clip-path="url(#clip0_643_6735)">
<rect width="375" height="812" rx="20" fill="#0946BB"/>
<path d="M188.009 418.013L159.801 386.392C140.624 364.894 108.262 361.462 85.0029 378.459C48.0187 405.486 -4 379.072 -4 333.265V-4H379V327.288C379 346.431 374.004 365.242 364.507 381.863L353.798 400.603C318.991 461.516 234.71 470.366 188.009 418.013Z" fill="#D5FFCB"/>
<path d="M304.067 206.857C239.266 169.447 134.548 169.447 70.1679 206.857C5.78748 244.266 6.13146 304.933 70.9261 342.343C135.721 379.752 240.452 379.759 304.832 342.343C369.213 304.926 368.869 244.273 304.067 206.857Z" fill="#F5F5F5"/>
<path d="M263.498 89.8473L265.688 88.5767L288.826 101.887V104.421L263.498 89.8473Z" fill="#F5F5F5"/>
<path d="M263.498 89.8473L288.826 104.421V107.306L263.491 92.7536L263.498 89.8473Z" fill="#E0E0E0"/>
<path d="M291.228 105.783L293.418 104.512L316.556 117.822V120.349L291.228 105.783Z" fill="#F5F5F5"/>
<path d="M291.227 105.783L316.555 120.349V123.241L291.22 108.689L291.227 105.783Z" fill="#E0E0E0"/>
<path d="M263.625 65.53L265.808 64.2594L265.681 150.416L263.491 151.686L263.625 65.53Z" fill="#F0F0F0"/>
<path d="M263.491 151.686L265.681 150.416L290.883 164.884L288.693 166.155L263.491 151.686Z" fill="#F5F5F5"/>
<path d="M261.111 61.1846L291.353 78.5591L291.206 170.521L260.964 153.147L261.111 61.1846ZM288.693 166.155L288.826 79.9982L263.624 65.53L263.491 151.686L288.693 166.155Z" fill="#E0E0E0"/>
<path d="M261.111 61.1846L263.302 59.914L293.544 77.2885L291.354 78.5591L261.111 61.1846Z" fill="#F5F5F5"/>
<path d="M291.353 78.5591L293.544 77.2885L293.396 169.229L291.206 170.5L291.353 78.5591Z" fill="#F0F0F0"/>
<path d="M291.353 81.4654L293.543 80.1948L293.41 166.351L291.22 167.622L291.353 81.4654Z" fill="#F0F0F0"/>
<path d="M291.22 167.622L293.41 166.351L318.612 180.819L316.422 182.09L291.22 167.622Z" fill="#F5F5F5"/>
<path d="M288.841 77.12L319.083 94.4945L318.936 186.457L288.693 169.082L288.841 77.12ZM316.422 182.09L316.556 95.9336L291.354 81.4654L291.221 167.622L316.422 182.09Z" fill="#E0E0E0"/>
<path d="M288.84 77.12L291.03 75.8494L321.272 93.2239L319.082 94.4945L288.84 77.12Z" fill="#F5F5F5"/>
<path d="M319.082 94.4945L321.272 93.2239L321.125 185.165L318.935 186.435L319.082 94.4945Z" fill="#F0F0F0"/>
<path d="M330.434 287.411C325.639 284.645 317.896 284.645 313.137 287.411C308.377 290.177 308.398 294.67 313.193 297.436C317.988 300.202 325.731 300.202 330.49 297.436C335.25 294.67 335.229 290.177 330.434 287.411Z" fill="#EBEBEB"/>
<path d="M285.78 266.836C264.72 254.663 230.61 254.663 209.656 266.836C191.144 277.597 189.087 294.256 203.401 306.393C191.846 305.691 179.877 307.881 171.053 313.006C155.566 322.006 155.651 336.593 171.235 345.593C186.82 354.593 212.007 354.593 227.493 345.593C239.813 338.432 242.235 327.734 234.914 319.127C252.667 321.697 272.204 318.966 286.033 310.935C306.981 298.755 306.876 279.015 285.78 266.836Z" fill="#EBEBEB"/>
<path d="M172.8 271.721L88.4477 320.419C88.0208 320.666 87.5366 320.795 87.0437 320.795C86.5508 320.795 86.0665 320.666 85.6397 320.419L79.6095 316.909C79.4608 316.824 79.3372 316.7 79.2513 316.552C79.1654 316.403 79.1201 316.235 79.1201 316.063C79.1201 315.892 79.1654 315.723 79.2513 315.575C79.3372 315.426 79.4608 315.303 79.6095 315.217L164.053 266.541C164.48 266.294 164.964 266.164 165.457 266.164C165.95 266.164 166.434 266.294 166.861 266.541L172.8 269.995C172.957 270.077 173.089 270.201 173.181 270.354C173.273 270.506 173.321 270.68 173.321 270.858C173.321 271.036 173.273 271.21 173.181 271.362C173.089 271.514 172.957 271.639 172.8 271.721Z" fill="#EBEBEB"/>
<path d="M165.443 260.623L62.446 319.647C62.0055 319.902 61.5054 320.036 60.9964 320.036C60.4873 320.036 59.9872 319.902 59.5467 319.647L53.327 316.06C53.1756 315.97 53.0502 315.843 52.9631 315.69C52.8759 315.538 52.8301 315.365 52.8301 315.189C52.8301 315.013 52.8759 314.841 52.9631 314.688C53.0502 314.535 53.1756 314.408 53.327 314.319L156.416 255.351C156.858 255.094 157.361 254.958 157.872 254.958C158.384 254.958 158.887 255.094 159.329 255.351L165.443 258.91C165.59 259 165.711 259.125 165.795 259.275C165.879 259.425 165.924 259.594 165.924 259.766C165.924 259.938 165.879 260.107 165.795 260.257C165.711 260.407 165.59 260.533 165.443 260.623Z" fill="#EBEBEB"/>
<path d="M253.488 126.33C253.156 125.744 252.67 125.258 252.084 124.926L229.62 111.813C227.963 110.865 224.004 112.157 224.004 114.824V139.191C224.004 139.844 224.177 140.485 224.505 141.05C224.833 141.614 225.304 142.082 225.871 142.406L240.487 150.76L237.96 149.314L239.174 152.753C239.193 152.802 239.23 152.841 239.277 152.863C239.324 152.886 239.377 152.889 239.427 152.873C239.644 152.768 240.592 152.255 241.14 151.897H241.175C241.193 151.882 241.209 151.866 241.224 151.848L241.519 151.371L248.321 155.491C248.868 155.841 249.498 156.038 250.146 156.063C250.794 156.089 251.437 155.94 252.009 155.634C252.582 155.328 253.062 154.875 253.4 154.322C253.739 153.769 253.925 153.135 253.937 152.487V128.141C253.942 127.509 253.788 126.886 253.488 126.33Z" fill="#3AAE1F"/>
<path opacity="0.2" d="M241.308 151.834C241.293 151.852 241.277 151.868 241.259 151.883H241.224C240.676 152.241 239.728 152.754 239.511 152.859C239.559 152.85 239.602 152.822 239.63 152.782L240.802 150.879L240.571 150.746L241.603 151.335L241.308 151.834Z" fill="white"/>
<path opacity="0.4" d="M249.837 128.422C249.599 127.942 249.262 127.519 248.847 127.179C248.706 127.065 248.556 126.961 248.398 126.871L225.934 113.757C225.746 113.65 225.534 113.595 225.317 113.596C225.101 113.597 224.889 113.655 224.702 113.763C224.515 113.872 224.36 114.028 224.252 114.215C224.145 114.403 224.088 114.615 224.088 114.831C224.088 112.164 228.019 110.872 229.704 111.82L252.168 124.933C252.754 125.265 253.24 125.751 253.572 126.337L249.837 128.422Z" fill="white"/>
<path opacity="0.2" d="M250.252 154.41V130.079C250.262 129.934 250.262 129.789 250.252 129.644C250.191 129.218 250.061 128.805 249.865 128.422L253.544 126.316C253.854 126.87 254.018 127.493 254.021 128.127V152.459C254.009 153.107 253.823 153.741 253.485 154.294C253.146 154.847 252.666 155.3 252.094 155.606C251.522 155.912 250.878 156.06 250.23 156.035C249.582 156.01 248.952 155.813 248.405 155.463C248.591 155.571 248.803 155.629 249.018 155.63C249.233 155.631 249.445 155.575 249.632 155.468C249.819 155.362 249.974 155.208 250.083 155.022C250.192 154.836 250.25 154.625 250.252 154.41Z" fill="white"/>
<path d="M242.136 137.597C242.71 136.737 242.997 135.717 242.958 134.684C242.95 134.341 242.922 133.999 242.873 133.659C242.806 133.185 242.705 132.715 242.572 132.255C242.32 131.373 241.979 130.519 241.554 129.707C241.42 129.447 241.28 129.194 241.125 128.942C240.829 128.449 240.504 127.976 240.15 127.524C239.939 127.257 239.714 126.997 239.49 126.751C238.827 126.029 238.06 125.409 237.215 124.912C232.821 122.371 230.055 126.246 232.245 131.89L234.056 136.572L237.159 144.596L242.136 137.597ZM240.03 133.147C240.03 134.923 238.774 135.639 237.222 134.747C236.819 134.506 236.453 134.208 236.134 133.863L236.057 133.771C235.667 133.332 235.337 132.844 235.074 132.318C234.819 131.826 234.633 131.302 234.52 130.76C234.462 130.483 234.432 130.201 234.428 129.917C234.428 128.141 235.699 127.432 237.236 128.324C237.639 128.565 238.006 128.863 238.324 129.208C238.551 129.454 238.758 129.716 238.942 129.995C239.083 130.198 239.21 130.412 239.321 130.633C239.59 131.127 239.786 131.657 239.904 132.206C239.977 132.514 240.017 132.83 240.023 133.147H240.03Z" fill="white"/>
<path d="M160.213 60.3913C159.567 58.1028 154.92 53.7574 150.301 53.8486C149.857 53.8631 149.419 53.9484 149.002 54.1014L59.2585 105.158C57.9481 105.917 56.8582 107.004 56.0961 108.313C55.3341 109.621 54.9264 111.106 54.9131 112.62V306.765C54.9131 311.679 60.6203 316.432 65.9696 314.157H66.0117C66.1299 314.12 66.2449 314.073 66.3557 314.017L156.113 262.869C157.429 262.117 158.522 261.031 159.283 259.721C160.043 258.41 160.444 256.922 160.445 255.407V61.3249C160.442 60.9998 160.363 60.6799 160.213 60.3913Z" fill="#3AAE1F"/>
<path d="M67.458 133.14C67.4575 132.382 67.658 131.638 68.0391 130.983C68.4201 130.328 68.9682 129.786 69.6272 129.412L152.948 82.034C153.274 81.8489 153.643 81.7525 154.018 81.7543C154.393 81.756 154.761 81.8559 155.085 82.0441C155.41 82.2322 155.679 82.502 155.867 82.8266C156.055 83.1512 156.154 83.5193 156.156 83.8943V240.44C156.153 241.198 155.951 241.942 155.571 242.598C155.19 243.253 154.644 243.797 153.987 244.175L70.6451 291.63C70.3198 291.812 69.9526 291.906 69.5799 291.903C69.2071 291.9 68.8417 291.799 68.5197 291.611C68.1978 291.423 67.9305 291.154 67.7443 290.832C67.5581 290.509 67.4594 290.143 67.458 289.77V133.14Z" fill="#37474F"/>
<path opacity="0.3" d="M54.9131 112.62V306.765C54.9131 311.679 60.6203 316.432 65.9696 314.157H66.0117C65.6889 314.283 65.3399 314.328 64.9959 314.287C64.6518 314.245 64.3232 314.12 64.0392 313.921C63.7552 313.723 63.5246 313.457 63.3678 313.148C63.2111 312.839 63.133 312.496 63.1405 312.15V117.983C63.1469 116.295 63.6525 114.646 64.5937 113.245L55.8046 108.857C55.2249 110.027 54.92 111.314 54.9131 112.62Z" fill="black"/>
<path opacity="0.1" d="M150.294 53.8417C149.85 53.8562 149.412 53.9415 148.995 54.0944L59.2585 105.158C57.7592 106.013 56.5548 107.303 55.8047 108.857L64.5937 113.245C65.3224 112.126 66.3034 111.193 67.4579 110.521L157.237 59.4577C157.49 59.3092 157.772 59.2153 158.064 59.1822C158.356 59.149 158.651 59.1773 158.932 59.2653C159.212 59.3532 159.471 59.4988 159.692 59.6927C159.912 59.8867 160.09 60.1246 160.213 60.3913C159.574 58.0958 154.927 53.7504 150.294 53.8417Z" fill="white"/>
<path d="M122.86 91.518C123.484 91.153 124.011 91.4408 124.011 92.1639C123.987 92.561 123.871 92.9472 123.673 93.2919C123.474 93.6367 123.198 93.9306 122.867 94.1505L105.253 104.315C104.622 104.681 104.116 104.372 104.116 103.649C104.135 103.255 104.247 102.871 104.443 102.529C104.64 102.187 104.915 101.897 105.246 101.683L122.86 91.518Z" fill="#263238"/>
<path d="M100.725 104.294C101.357 103.936 101.863 104.224 101.87 104.947C101.849 105.343 101.735 105.729 101.537 106.073C101.34 106.417 101.064 106.709 100.732 106.927C100.101 107.292 99.5811 106.99 99.5811 106.267C99.6022 105.871 99.7169 105.486 99.9158 105.143C100.115 104.8 100.392 104.509 100.725 104.294Z" fill="#263238"/>
<path d="M112 90.0438C113.256 89.3418 114.274 89.8894 114.274 91.3425C114.234 92.1326 114.009 92.9022 113.616 93.5888C113.224 94.2755 112.675 94.86 112.014 95.2948C110.75 95.9968 109.711 95.4282 109.704 93.982C109.747 93.1906 109.978 92.4208 110.377 91.736C110.776 91.0512 111.332 90.4712 112 90.0438Z" fill="#263238"/>
<path d="M111.999 272.81C114.569 271.328 116.64 272.508 116.647 275.456C116.564 277.066 116.103 278.634 115.302 280.033C114.5 281.431 113.381 282.622 112.034 283.508C109.465 284.982 107.345 283.775 107.331 280.826C107.425 279.217 107.897 277.653 108.708 276.26C109.519 274.868 110.646 273.685 111.999 272.81Z" fill="#263238"/>
<path d="M173.712 68.1553C173.116 66.0493 168.904 62.1322 164.706 62.2164C164.305 62.2296 163.909 62.3078 163.533 62.4481L82.0593 108.78C80.8702 109.469 79.8815 110.456 79.1908 111.644C78.5001 112.832 78.1314 114.18 78.1211 115.554V291.756C78.1211 296.249 83.3019 300.531 88.1597 298.468C88.2657 298.433 88.369 298.391 88.4686 298.341L169.985 251.918C171.179 251.235 172.171 250.249 172.862 249.059C173.552 247.87 173.916 246.519 173.916 245.144V69.0048C173.913 68.7099 173.843 68.4196 173.712 68.1553Z" fill="#455A64"/>
<path opacity="0.1" d="M78.1279 115.562V291.764C78.1279 296.256 83.3087 300.539 88.1665 298.475C87.8738 298.582 87.5595 298.617 87.2503 298.577C86.9411 298.537 86.6462 298.423 86.3906 298.244C86.1349 298.066 85.9261 297.828 85.7819 297.552C85.6377 297.275 85.5623 296.968 85.5621 296.656V120.454C85.5683 118.921 86.0275 117.424 86.8819 116.151L78.9001 112.164C78.3898 113.224 78.1258 114.385 78.1279 115.562Z" fill="white"/>
<path opacity="0.2" d="M164.713 62.2095C164.312 62.2227 163.916 62.3009 163.541 62.4412L82.0665 108.773C80.7115 109.554 79.6212 110.723 78.9355 112.129L86.9173 116.116C87.586 115.1 88.4826 114.254 89.5357 113.645L171.003 67.292C171.234 67.1607 171.49 67.0782 171.754 67.0497C172.019 67.0211 172.286 67.0471 172.54 67.1261C172.794 67.2051 173.029 67.3353 173.231 67.5087C173.433 67.6821 173.597 67.8951 173.713 68.1344C173.123 66.0705 168.911 62.1253 164.713 62.2095Z" fill="white"/>
<path d="M173.713 68.1554C173.599 67.9143 173.436 67.6993 173.235 67.5237C173.035 67.3481 172.8 67.2157 172.546 67.1347C172.291 67.0537 172.023 67.0259 171.758 67.0529C171.493 67.08 171.236 67.1614 171.003 67.292L89.571 113.624C88.3843 114.316 87.3974 115.303 86.7071 116.491C86.0167 117.678 85.6466 119.025 85.6328 120.398V296.6C85.633 296.912 85.7084 297.219 85.8526 297.496C85.9968 297.772 86.2056 298.01 86.4613 298.188C86.7169 298.367 87.0118 298.481 87.321 298.521C87.6302 298.561 87.9445 298.526 88.2372 298.418C88.3432 298.384 88.4465 298.342 88.5461 298.292L169.985 251.918C171.179 251.235 172.171 250.249 172.862 249.06C173.552 247.87 173.916 246.519 173.916 245.144V69.0049C173.913 68.71 173.843 68.4197 173.713 68.1554Z" fill="#455A64"/>
<path d="M89.627 131.392C89.6269 130.641 89.8519 129.907 90.2728 129.286C90.5894 128.792 91.0205 128.383 91.5294 128.092L169.887 83.5363V242.413C169.887 243.077 169.711 243.729 169.379 244.303C169.046 244.878 168.567 245.354 167.991 245.684L89.627 290.338V131.392Z" fill="#455A64"/>
<path opacity="0.3" d="M89.627 131.392C89.6269 130.641 89.8519 129.907 90.2728 129.286C90.5894 128.792 91.0205 128.383 91.5294 128.092L169.887 83.5363V242.413C169.887 243.077 169.711 243.729 169.379 244.303C169.046 244.878 168.567 245.354 167.991 245.684L89.627 290.338V131.392Z" fill="black"/>
<path d="M165.141 77.4851L165.148 79.4787L167.675 78.0186L167.668 76.0249L165.141 77.4851Z" fill="#3AAE1F"/>
<path d="M169.992 74.0172L164.559 77.1551V80.4826L169.992 77.3446V76.2074L170.378 75.9828V74.9298L170.238 75.014L169.992 75.1544V74.0172ZM167.675 78.0185L165.148 79.4787V77.485L167.675 76.0249V78.0185Z" fill="white"/>
<path d="M123.471 100.876L123.478 104.21L136.809 96.5092L136.795 93.1818L123.471 100.876Z" fill="white"/>
<path d="M157.173 81.4163L157.187 84.7437L162.108 81.9006L162.101 78.5661L157.173 81.4163Z" fill="white"/>
<path d="M91.5645 119.774L91.5715 122.624L92.2454 122.238L92.2384 119.387L91.5645 119.774Z" fill="white"/>
<path d="M102.136 116.53L105.035 114.853L105.028 111.518L103.351 112.487L102.122 113.196L102.136 116.53Z" fill="white"/>
<path d="M95.2082 120.525L100.642 117.394L100.635 114.059L95.2012 117.197L95.2082 120.525Z" fill="white"/>
<path d="M92.6877 121.985L93.0878 121.753L93.3616 121.592L93.3546 118.264L92.6807 118.65L92.6877 121.985Z" fill="white"/>
<path d="M90.4553 123.269L90.9467 122.989L91.1292 122.883L91.1222 120.637L90.9396 120.742L90.4482 121.023L90.4553 123.269Z" fill="white"/>
<path d="M89.3459 123.915L90.0128 123.529L90.0058 121.887L89.3389 122.266L89.3459 123.915Z" fill="white"/>
<path d="M163.105 184.372L169.886 180.504V177.302L163.028 181.22L162.656 166.351L169.886 161.992V158.791L162.579 163.199L162.319 152.803L169.886 147.832V144.617L162.228 149.644L161.975 138.896L158.661 126.962L169.893 116.769V111.209L157.798 122.195L155.91 104.989L169.879 94.2137V90.9564L155.58 101.992L154.506 92.2832L151.698 93.8767L152.884 104.716L139.834 124.533L129.234 106.667L124.018 109.637L126.65 114.066L121.161 120.574L119.125 116.636L107.893 127.166L108.946 138.398L89.6619 149.531V152.732L112.028 139.823L110.89 127.727L117.658 121.409L119.904 125.755L127.949 116.2L129.725 119.198L103.751 159.507L89.6338 172.143V175.47L103.772 162.834L112.533 174.621L105.113 187.257L89.6689 203.403V209.096L97.9946 200.419L100.803 210.823L100.845 224.428L89.6549 229.826V233.041L100.711 227.706L99.2301 245.958L94.7514 252.199L94.1196 268.443L89.6549 271.349V276.699L129.36 250.865L128.714 268.064L131.522 266.477L132.386 242.427L147.064 233.666L148.377 256.832L153.031 254.178L152.463 244.105L169.886 232.746V229.531L152.287 241.002L151.213 222.167L164.446 214.529L163.484 197.401L169.886 194.312V191.09L163.351 194.249L163.105 184.372ZM153.277 108.261L155.067 124.582L145.19 133.561L141.168 126.716L153.277 108.261ZM126.138 199.219L122.052 201.578L118.289 203.747L115.938 188.106L125.906 179.942L128.602 197.794L126.138 199.219ZM129.051 200.735L130.455 210.142L127.015 211.799L126.313 202.294L129.051 200.735ZM115.495 185.228L114.513 178.713L129.234 153.638L129.851 153.083L130.975 159.401L126.524 164.056L127.591 166.407L138.184 155.302L137.117 152.936L133.607 156.629L132.54 150.598L141.87 142.146L143.035 162.631L115.495 185.228ZM143.203 165.797L145.309 203.003L140.999 205.109L137.25 170.676L143.203 165.797ZM124.495 131.497L127.633 135.905L117.693 151.293L114.555 146.948L124.495 131.497ZM106.243 159.9L112.386 150.254L116.963 156.572L131.199 134.516L126.629 128.113L130.975 121.374L140.641 137.675L127.366 149.735L126.805 150.24L114.555 171.097L106.243 159.9ZM100.578 197.766L107.731 190.303L112.105 182.862L115.896 208.324L122.038 204.779L123.547 203.901L124.207 213.154L103.59 223.136V210.409L108.981 206.281L108.518 203.382L103.21 207.453L100.578 197.766ZM106.615 260.398L96.9135 266.716L97.4681 252.437L101.877 246.302L103.491 226.435L108.195 224.168L106.615 260.398ZM129.557 245.474L109.416 258.58L110.982 222.785L130.715 213.259L129.557 245.474ZM128.658 177.738L134.562 172.908L138.212 206.456L133.354 208.801L128.658 177.738ZM132.512 239.191L133.446 211.904L145.485 206.091L146.889 230.577L132.512 239.191ZM146.454 138.033L156.022 129.349L159.23 140.96L159.49 151.49L147.64 159.254L146.454 138.033ZM147.858 162.378L159.581 154.656L159.841 164.898L148.391 171.799L147.858 162.378ZM148.56 174.909L159.911 168.064L160.276 182.841L149.36 189.075L148.56 174.909ZM149.535 192.178L160.353 186L160.599 195.66L150.027 200.763L149.535 192.178ZM151.073 219.135L150.209 203.887L160.739 198.812L161.54 213.104L151.073 219.135Z" fill="#455A64"/>
<g opacity="0.3">
<path d="M163.105 184.372L169.886 180.504V177.302L163.028 181.22L162.656 166.351L169.886 161.992V158.791L162.579 163.199L162.319 152.803L169.886 147.832V144.617L162.228 149.644L161.975 138.896L158.661 126.962L169.893 116.769V111.209L157.798 122.195L155.91 104.989L169.879 94.2137V90.9564L155.58 101.992L154.506 92.2832L151.698 93.8767L152.884 104.716L139.834 124.533L129.234 106.667L124.018 109.637L126.65 114.066L121.161 120.574L119.125 116.636L107.893 127.166L108.946 138.398L89.6619 149.531V152.732L112.028 139.823L110.89 127.727L117.658 121.409L119.904 125.755L127.949 116.2L129.725 119.198L103.751 159.507L89.6338 172.143V175.47L103.772 162.834L112.533 174.621L105.113 187.257L89.6689 203.403V209.096L97.9946 200.419L100.803 210.823L100.845 224.428L89.6549 229.826V233.041L100.711 227.706L99.2301 245.958L94.7514 252.199L94.1196 268.443L89.6549 271.349V276.699L129.36 250.865L128.714 268.064L131.522 266.477L132.386 242.427L147.064 233.666L148.377 256.832L153.031 254.178L152.463 244.105L169.886 232.746V229.531L152.287 241.002L151.213 222.167L164.446 214.529L163.484 197.401L169.886 194.312V191.09L163.351 194.249L163.105 184.372ZM153.277 108.261L155.067 124.582L145.19 133.561L141.168 126.716L153.277 108.261ZM126.138 199.219L122.052 201.578L118.289 203.747L115.938 188.106L125.906 179.942L128.602 197.794L126.138 199.219ZM129.051 200.735L130.455 210.142L127.015 211.799L126.313 202.294L129.051 200.735ZM115.495 185.228L114.513 178.713L129.234 153.638L129.851 153.083L130.975 159.401L126.524 164.056L127.591 166.407L138.184 155.302L137.117 152.936L133.607 156.629L132.54 150.598L141.87 142.146L143.035 162.631L115.495 185.228ZM143.203 165.797L145.309 203.003L140.999 205.109L137.25 170.676L143.203 165.797ZM124.495 131.497L127.633 135.905L117.693 151.293L114.555 146.948L124.495 131.497ZM106.243 159.9L112.386 150.254L116.963 156.572L131.199 134.516L126.629 128.113L130.975 121.374L140.641 137.675L127.366 149.735L126.805 150.24L114.555 171.097L106.243 159.9ZM100.578 197.766L107.731 190.303L112.105 182.862L115.896 208.324L122.038 204.779L123.547 203.901L124.207 213.154L103.59 223.136V210.409L108.981 206.281L108.518 203.382L103.21 207.453L100.578 197.766ZM106.615 260.398L96.9135 266.716L97.4681 252.437L101.877 246.302L103.491 226.435L108.195 224.168L106.615 260.398ZM129.557 245.474L109.416 258.58L110.982 222.785L130.715 213.259L129.557 245.474ZM128.658 177.738L134.562 172.908L138.212 206.456L133.354 208.801L128.658 177.738ZM132.512 239.191L133.446 211.904L145.485 206.091L146.889 230.577L132.512 239.191ZM146.454 138.033L156.022 129.349L159.23 140.96L159.49 151.49L147.64 159.254L146.454 138.033ZM147.858 162.378L159.581 154.656L159.841 164.898L148.391 171.799L147.858 162.378ZM148.56 174.909L159.911 168.064L160.276 182.841L149.36 189.075L148.56 174.909ZM149.535 192.178L160.353 186L160.599 195.66L150.027 200.763L149.535 192.178ZM151.073 219.135L150.209 203.887L160.739 198.812L161.54 213.104L151.073 219.135Z" fill="white"/>
</g>
<path d="M185.998 190.247C186.637 189.882 187.142 190.177 187.149 190.9L187.191 206.562C187.171 206.957 187.057 207.341 186.859 207.684C186.661 208.027 186.386 208.318 186.054 208.534L148.989 229.931L148.939 211.644L185.998 190.247Z" fill="#3AAE1F"/>
<g opacity="0.3">
<path d="M185.998 190.247C186.637 189.882 187.142 190.177 187.149 190.9L187.191 206.562C187.171 206.957 187.057 207.341 186.859 207.684C186.661 208.027 186.386 208.318 186.054 208.534L148.989 229.931L148.939 211.644L185.998 190.247Z" fill="white"/>
</g>
<path d="M184.643 203.22L184.65 204.477L157.349 220.244L157.342 218.98L184.643 203.22Z" fill="white"/>
<path d="M168.454 215.253L168.461 216.516L157.356 222.925L157.349 221.669L168.454 215.253Z" fill="white"/>
<path d="M184.636 200.539L184.643 201.802L157.342 217.562L157.335 216.306L184.636 200.539Z" fill="white"/>
<path d="M184.629 197.857V199.114L157.335 214.88L157.328 213.617L184.629 197.857Z" fill="white"/>
<path d="M177.327 198.124L177.335 200.644L157.32 212.192L157.313 209.679L177.327 198.124Z" fill="white"/>
<path d="M139.013 205.354C143.352 202.848 147.697 202.244 151.024 204.14C157.146 207.65 157.722 218.482 152.365 229.335L139.154 256.088L125.851 244.645C120.438 240.005 120.937 228.499 127.037 217.969C130.337 212.269 134.675 207.86 139.013 205.354Z" fill="#3AAE1F"/>
<path d="M149.255 230.658C154.896 220.95 154.912 210.432 149.291 207.166C143.669 203.899 134.539 209.121 128.898 218.829C123.257 228.537 123.241 239.055 128.862 242.321C134.484 245.588 143.614 240.366 149.255 230.658Z" fill="#455A64"/>
<path d="M139.132 241.325C143.182 238.98 146.854 234.944 149.451 230.331C148.742 229.752 147.91 229.341 147.018 229.131C146.127 228.921 145.199 228.916 144.305 229.117L142.375 229.552L136.254 230.858L130.743 235C129.781 235.724 128.99 236.651 128.426 237.715C127.862 238.779 127.539 239.954 127.479 241.156V241.241C130.104 243.852 134.344 244.084 139.132 241.325Z" fill="#3AAE1F"/>
<path opacity="0.2" d="M139.132 241.325C143.182 238.98 146.854 234.944 149.451 230.331C148.742 229.752 147.91 229.341 147.018 229.131C146.127 228.921 145.199 228.916 144.305 229.117L142.375 229.552L136.254 230.858L130.743 235C129.781 235.724 128.99 236.651 128.426 237.715C127.862 238.779 127.539 239.954 127.479 241.156V241.241C130.104 243.852 134.344 244.084 139.132 241.325Z" fill="black"/>
<path d="M147.648 224.126C148.58 223.456 149.229 222.462 149.467 221.339C149.704 220.215 149.514 219.044 148.932 218.054C149.453 217.818 149.881 217.415 150.147 216.909C150.249 216.662 150.278 216.39 150.231 216.126C150.183 215.862 150.062 215.618 149.88 215.421C149.688 215.236 149.448 215.109 149.187 215.056C148.926 215.002 148.655 215.024 148.406 215.119C148.542 214.721 148.542 214.29 148.406 213.892C148.27 213.494 148.006 213.153 147.655 212.922C147.295 212.726 146.879 212.659 146.477 212.733C146.074 212.807 145.709 213.018 145.443 213.329C145.453 213.07 145.378 212.815 145.23 212.602C145.082 212.389 144.868 212.23 144.622 212.15C144.115 212.017 143.578 212.052 143.092 212.248C142.6 212.416 142.137 212.662 141.638 212.817C140.786 213.029 139.912 213.14 139.034 213.147C138.148 213.165 137.282 213.407 136.514 213.849C136.092 214.107 135.766 214.497 135.588 214.959C135.409 215.421 135.386 215.928 135.524 216.404C135.398 216.243 135.24 216.111 135.06 216.015C134.88 215.92 134.682 215.863 134.478 215.849C134.277 215.844 134.077 215.882 133.891 215.96C133.706 216.039 133.54 216.157 133.404 216.306C133.952 216.642 134.478 217.008 135.033 217.352C134.719 217.262 134.384 217.279 134.08 217.4C133.777 217.52 133.522 217.738 133.355 218.018C133.095 218.57 132.993 219.182 133.06 219.787C133.133 222.09 133.542 224.37 134.274 226.555C134.647 227.685 135.194 228.878 136.261 229.398L147.648 224.126Z" fill="#263238"/>
<path d="M141.828 229.559L141.589 232.262C141.577 232.469 141.629 232.675 141.736 232.852C141.887 233.134 141.946 233.456 141.905 233.773C141.863 234.091 141.723 234.387 141.505 234.621C141.154 234.878 140.732 235.02 140.297 235.028C139.475 235.072 138.652 234.942 137.884 234.645C137.116 234.349 136.419 233.893 135.839 233.308C135.721 233.185 135.629 233.04 135.569 232.881C135.508 232.721 135.481 232.552 135.488 232.381L135.664 225.544L141.828 229.559Z" fill="#FFA8A7"/>
<path opacity="0.3" d="M136.205 225.895L141.821 229.559L141.61 231.953C140.29 231.732 139.039 231.211 137.953 230.43C137.3 229.885 136.797 229.182 136.491 228.389C136.185 227.595 136.087 226.737 136.205 225.895Z" fill="black"/>
<path d="M147.957 218.573C148.372 221.702 148.166 224.881 147.353 227.931C147.197 228.602 146.947 229.247 146.609 229.847C146.27 230.455 145.736 230.93 145.093 231.195C144.272 231.42 143.407 231.42 142.586 231.195C141.041 231.019 139.542 230.56 138.164 229.84C137.479 229.471 136.909 228.923 136.513 228.253C136.117 227.584 135.911 226.82 135.917 226.042C135.543 226.286 135.11 226.427 134.663 226.45C134.217 226.473 133.772 226.378 133.374 226.175C132.976 225.971 132.639 225.666 132.396 225.29C132.154 224.914 132.015 224.481 131.993 224.035C131.912 223.686 131.946 223.321 132.09 222.994C132.234 222.666 132.48 222.394 132.791 222.218C133.102 222.042 133.462 221.971 133.817 222.016C134.172 222.062 134.502 222.22 134.759 222.469C135.159 222.817 135.507 223.222 135.791 223.67C135.92 223.887 136.095 224.074 136.303 224.217C136.407 224.287 136.529 224.325 136.654 224.325C136.78 224.325 136.902 224.287 137.005 224.217C137.094 224.111 137.157 223.987 137.191 223.853C137.225 223.72 137.229 223.58 137.202 223.445L137.118 221.486C137.116 221.34 137.157 221.197 137.234 221.072C137.311 220.948 137.421 220.848 137.553 220.784C137.956 220.562 138.267 220.204 138.431 219.773C138.569 219.397 138.651 219.002 138.676 218.601C138.682 218.526 138.705 218.452 138.745 218.387C138.784 218.323 138.838 218.268 138.902 218.228C138.966 218.187 139.039 218.163 139.114 218.156C139.19 218.148 139.266 218.159 139.336 218.187C142.103 219.191 145.111 219.326 147.957 218.573Z" fill="#FFA8A7"/>
<path d="M143.653 223.319L145.415 226.281L143.316 226.681L143.653 223.319Z" fill="#F28F8F"/>
<path d="M141.288 227.699L142.881 228.478C142.744 228.658 142.553 228.789 142.335 228.851C142.117 228.914 141.885 228.903 141.674 228.822C141.491 228.707 141.353 228.533 141.283 228.329C141.213 228.124 141.214 227.902 141.288 227.699Z" fill="#F28F8F"/>
<path opacity="0.3" d="M141.288 227.699L142.881 228.478C142.744 228.658 142.553 228.789 142.335 228.851C142.117 228.914 141.885 228.903 141.674 228.822C141.491 228.707 141.353 228.533 141.283 228.329C141.213 228.124 141.214 227.902 141.288 227.699Z" fill="black"/>
<path d="M142.228 228.871C142.042 228.908 141.849 228.891 141.673 228.822C141.527 228.739 141.408 228.615 141.332 228.465C141.256 228.316 141.226 228.147 141.245 227.98C141.492 227.974 141.732 228.063 141.915 228.229C142.098 228.395 142.21 228.625 142.228 228.871Z" fill="#F28F8F"/>
<path d="M140.613 223.438C140.604 223.516 140.611 223.596 140.633 223.671C140.655 223.747 140.692 223.818 140.742 223.879C140.792 223.941 140.853 223.991 140.922 224.029C140.992 224.066 141.068 224.09 141.147 224.098C141.226 224.108 141.308 224.103 141.385 224.081C141.463 224.06 141.536 224.023 141.599 223.973C141.662 223.923 141.715 223.861 141.754 223.791C141.793 223.72 141.817 223.642 141.825 223.562C141.834 223.482 141.826 223.401 141.803 223.324C141.779 223.247 141.741 223.175 141.689 223.113C141.638 223.051 141.574 223 141.503 222.963C141.431 222.926 141.353 222.904 141.273 222.897C141.194 222.889 141.114 222.896 141.038 222.918C140.962 222.941 140.891 222.978 140.829 223.029C140.768 223.079 140.717 223.141 140.68 223.212C140.643 223.282 140.62 223.359 140.613 223.438Z" fill="#263238"/>
<path d="M145.668 223.754C145.656 223.873 145.68 223.992 145.736 224.098C145.792 224.203 145.878 224.29 145.983 224.346C146.089 224.402 146.208 224.426 146.327 224.415C146.446 224.403 146.559 224.357 146.651 224.281C146.744 224.205 146.812 224.104 146.846 223.99C146.881 223.875 146.881 223.753 146.847 223.639C146.812 223.525 146.744 223.423 146.652 223.347C146.56 223.272 146.447 223.225 146.328 223.213C146.169 223.197 146.01 223.246 145.886 223.347C145.762 223.448 145.684 223.595 145.668 223.754Z" fill="#263238"/>
<path d="M146.489 221.423L147.732 222.476C147.806 222.317 147.829 222.138 147.799 221.965C147.769 221.792 147.687 221.632 147.563 221.507C147.41 221.394 147.228 221.326 147.038 221.311C146.848 221.297 146.658 221.335 146.489 221.423Z" fill="#263238"/>
<path d="M141.365 220.833C140.887 221.093 140.41 221.353 139.961 221.62C139.921 221.449 139.933 221.27 139.995 221.106C140.058 220.942 140.168 220.801 140.312 220.7C140.483 220.623 140.671 220.595 140.857 220.619C141.043 220.642 141.219 220.716 141.365 220.833Z" fill="#263238"/>
<path d="M143.737 147.159C144.376 146.794 144.882 147.088 144.889 147.811L144.931 163.473C144.909 163.868 144.794 164.252 144.597 164.595C144.399 164.937 144.124 165.229 143.793 165.446L106.728 186.843L106.679 168.556L143.737 147.159Z" fill="#3AAE1F"/>
<g opacity="0.3">
<path d="M143.737 147.159C144.376 146.794 144.882 147.088 144.889 147.811L144.931 163.473C144.909 163.868 144.794 164.252 144.597 164.595C144.399 164.937 144.124 165.229 143.793 165.446L106.728 186.843L106.679 168.556L143.737 147.159Z" fill="white"/>
</g>
<path d="M142.383 160.132L142.39 161.388L115.089 177.148L115.082 175.891L142.383 160.132Z" fill="white"/>
<path d="M126.195 172.164L126.202 173.427L115.096 179.837L115.089 178.573L126.195 172.164Z" fill="white"/>
<path d="M142.376 157.45L142.383 158.713L115.082 174.473L115.075 173.21L142.376 157.45Z" fill="white"/>
<path d="M142.369 154.768L142.376 156.025L115.068 171.785V170.528L142.369 154.768Z" fill="white"/>
<path d="M135.068 155.035L135.075 157.548L115.061 169.103L115.054 166.583L135.068 155.035Z" fill="white"/>
<path d="M96.7525 161.36C101.091 158.854 105.436 158.25 108.764 160.146C114.885 163.656 115.461 174.487 110.098 185.34L96.8929 212.115L83.6041 200.672C78.1987 196.032 78.6901 184.526 84.7975 173.996C88.0758 168.296 92.4142 163.887 96.7525 161.36Z" fill="#3AAE1F"/>
<path d="M106.999 186.684C112.64 176.976 112.655 166.458 107.034 163.192C101.412 159.925 92.2819 165.147 86.6408 174.855C80.9998 184.563 80.984 195.081 86.6056 198.347C92.2272 201.614 101.357 196.392 106.999 186.684Z" fill="#455A64"/>
<path d="M96.8723 197.352C101.084 194.923 104.847 190.661 107.472 185.832C105.796 184.913 103.84 184.64 101.976 185.067L98.6904 185.811L91.9442 187.257L86.1036 191.651C85.0619 192.44 84.1336 193.369 83.3447 194.41C85.4156 199.493 90.6947 200.918 96.8723 197.352Z" fill="white"/>
<path d="M88.4132 178.699C88.596 178.268 88.9307 177.918 89.3539 177.717C89.4433 177.671 89.5375 177.636 89.6347 177.611C89.9188 177.564 90.21 177.588 90.4829 177.68C90.7558 177.772 91.0021 177.929 91.2002 178.138C91.5907 178.559 91.8536 179.082 91.9583 179.647C92.0634 180.21 92.1268 180.78 92.1479 181.353C92.2303 182.365 92.3875 183.369 92.6182 184.358C92.7392 184.897 92.9756 185.405 93.3113 185.845C93.647 186.285 94.0739 186.647 94.5627 186.906L94.6329 186.941C96.0507 187.644 97.5953 188.054 99.1749 188.148V189.868C100.431 191.574 100.782 194.838 97.476 193.863C94.1696 192.887 92.0215 190.69 92.0215 188.534C92.0215 187.622 91.9794 186.428 91.9513 185.403C91.9513 183.999 91.8951 182.813 91.8951 182.813C91.5875 183.169 91.1558 183.395 90.6877 183.445C90.4767 183.472 90.2625 183.46 90.0559 183.41C89.7534 183.312 89.4735 183.155 89.2324 182.947C88.9914 182.74 88.794 182.487 88.6519 182.202C88.3724 181.628 88.2192 181.001 88.2026 180.363C88.1417 179.8 88.2138 179.23 88.4132 178.699Z" fill="#FFA8A7"/>
<path opacity="0.3" d="M88.4132 178.699C88.596 178.268 88.9307 177.918 89.3539 177.717C89.4433 177.671 89.5375 177.636 89.6347 177.611C89.9188 177.564 90.21 177.588 90.4829 177.68C90.7558 177.772 91.0021 177.929 91.2002 178.138C91.5907 178.559 91.8536 179.082 91.9583 179.647C92.0634 180.21 92.1268 180.78 92.1479 181.353C92.2303 182.365 92.3875 183.369 92.6182 184.358C92.7392 184.897 92.9756 185.405 93.3113 185.845C93.647 186.285 94.0739 186.647 94.5627 186.906L94.6329 186.941C96.0507 187.644 97.5953 188.054 99.1749 188.148V189.868C100.431 191.574 100.782 194.838 97.476 193.863C94.1696 192.887 92.0215 190.69 92.0215 188.534C92.0215 187.622 91.9794 186.428 91.9513 185.403C91.9513 183.999 91.8951 182.813 91.8951 182.813C91.5875 183.169 91.1558 183.395 90.6877 183.445C90.4767 183.472 90.2625 183.46 90.0559 183.41C89.7534 183.312 89.4735 183.155 89.2324 182.947C88.9914 182.74 88.794 182.487 88.6519 182.202C88.3724 181.628 88.2192 181.001 88.2026 180.363C88.1417 179.8 88.2138 179.23 88.4132 178.699Z" fill="black"/>
<path d="M89.4875 172.732C90.1476 171.956 91.0741 171.456 92.0849 171.328L105.655 172.592C107.22 175.912 105.97 178.103 105.97 178.103C106.181 183.157 106.357 186.372 104.131 187.439C102.561 188.072 100.86 188.313 99.1751 188.141C97.5955 188.047 96.0509 187.637 94.6332 186.934L94.563 186.892C94.0725 186.633 93.6444 186.27 93.3085 185.829C92.9727 185.388 92.7371 184.878 92.6184 184.336C92.3878 183.353 92.2306 182.353 92.1481 181.346C92.127 180.773 92.0636 180.203 91.9585 179.64C91.8539 179.075 91.5909 178.552 91.2004 178.131C91.0023 177.922 90.7561 177.765 90.4832 177.673C90.2103 177.581 89.919 177.557 89.6349 177.604C89.5377 177.629 89.4435 177.664 89.3541 177.71C88.968 175.47 88.8557 173.526 89.4875 172.732Z" fill="#263238"/>
<path d="M94.4574 173.118C94.6915 174.062 94.6278 175.055 94.2749 175.962C93.924 176.862 93.6378 177.786 93.4185 178.727C93.2339 179.679 93.3645 180.665 93.7905 181.535C94.0025 181.964 94.306 182.341 94.6796 182.639C95.0532 182.938 95.4878 183.15 95.9527 183.262C97.4058 183.571 98.8309 182.722 100.298 182.441C101.698 182.187 103.142 182.436 104.377 183.143C104.481 183.207 104.6 183.242 104.722 183.246C104.844 183.249 104.965 183.221 105.073 183.163C105.18 183.106 105.271 183.021 105.336 182.918C105.401 182.815 105.438 182.696 105.444 182.574C105.619 179.668 105.619 175.105 105.184 172.964L94.4574 173.118Z" fill="#FFA8A7"/>
<path opacity="0.3" d="M94.4574 173.118C94.6915 174.062 94.6278 175.055 94.2749 175.962C93.924 176.862 93.6378 177.786 93.4185 178.727C93.2339 179.679 93.3645 180.665 93.7905 181.535C94.0025 181.964 94.306 182.341 94.6796 182.639C95.0532 182.938 95.4878 183.15 95.9527 183.262C97.4058 183.571 98.8309 182.722 100.298 182.441C101.698 182.187 103.142 182.436 104.377 183.143C104.481 183.207 104.6 183.242 104.722 183.246C104.844 183.249 104.965 183.221 105.073 183.163C105.18 183.106 105.271 183.021 105.336 182.918C105.401 182.815 105.438 182.696 105.444 182.574C105.619 179.668 105.619 175.105 105.184 172.964L94.4574 173.118Z" fill="black"/>
<path d="M104.96 170.486L106.644 169.314C106.819 169.877 106.851 170.476 106.738 171.055C106.626 171.634 106.371 172.177 105.998 172.634C105.227 173.53 104.18 174.144 103.022 174.382C101.868 174.624 100.683 174.678 99.512 174.544C97.8036 174.402 96.113 174.094 94.4646 173.624C93.7194 173.469 93.0332 173.106 92.485 172.578C92.141 172.141 91.9453 171.606 91.9263 171.051C91.9074 170.495 92.0662 169.948 92.3797 169.489C92.7062 169.036 93.1255 168.658 93.6096 168.379C94.0938 168.101 94.6318 167.929 95.1877 167.875C96.3132 167.788 97.4454 167.878 98.5432 168.141C99.6433 168.406 100.779 168.486 101.906 168.38C102.467 168.321 103.006 168.127 103.476 167.816C103.947 167.504 104.335 167.084 104.609 166.59C105.556 168.127 104.96 170.486 104.96 170.486Z" fill="#263238"/>
<path d="M100.698 178.285L103.176 181.283L100.902 182.083L100.698 178.285Z" fill="#F28F8F"/>
<path opacity="0.3" d="M100.698 178.285L103.176 181.283L100.902 182.083L100.698 178.285Z" fill="black"/>
<path d="M98.8236 183.571L100.74 184.154C100.619 184.38 100.427 184.561 100.194 184.669C99.9612 184.777 99.6993 184.805 99.4484 184.751C99.2257 184.654 99.0424 184.485 98.9288 184.271C98.8153 184.056 98.7781 183.81 98.8236 183.571Z" fill="#F28F8F"/>
<path opacity="0.3" d="M98.8236 183.571L100.74 184.154C100.619 184.38 100.427 184.561 100.194 184.669C99.9612 184.777 99.6993 184.805 99.4484 184.751C99.2257 184.654 99.0424 184.485 98.9288 184.271C98.8153 184.056 98.7781 183.81 98.8236 183.571Z" fill="black"/>
<path d="M100.074 184.709C99.875 184.788 99.6563 184.803 99.4488 184.751C99.2725 184.683 99.1198 184.565 99.01 184.412C98.9001 184.258 98.8379 184.076 98.8311 183.887C99.0732 183.857 99.3188 183.904 99.5331 184.021C99.6648 184.093 99.7806 184.191 99.8735 184.309C99.9664 184.428 100.034 184.563 100.074 184.709Z" fill="#F28F8F"/>
<path d="M97.3359 178.91C97.3365 179.051 97.3798 179.189 97.4601 179.306C97.5404 179.422 97.654 179.512 97.786 179.562C97.918 179.613 98.0622 179.623 98.1998 179.59C98.3374 179.558 98.462 179.484 98.5571 179.38C98.6523 179.275 98.7137 179.144 98.7332 179.004C98.7527 178.864 98.7295 178.721 98.6666 178.595C98.6036 178.468 98.5039 178.363 98.3804 178.294C98.257 178.225 98.1156 178.195 97.9748 178.208C97.7997 178.224 97.637 178.305 97.5187 178.435C97.4005 178.565 97.3352 178.734 97.3359 178.91Z" fill="#263238"/>
<path d="M103.022 178.412C103 178.517 103.002 178.626 103.029 178.73C103.055 178.834 103.105 178.931 103.175 179.013C103.245 179.095 103.333 179.159 103.432 179.202C103.531 179.244 103.638 179.264 103.745 179.258C103.853 179.252 103.957 179.222 104.051 179.17C104.145 179.117 104.226 179.044 104.287 178.955C104.348 178.867 104.388 178.765 104.404 178.659C104.419 178.552 104.41 178.444 104.377 178.341C104.399 178.236 104.397 178.127 104.371 178.023C104.344 177.919 104.294 177.822 104.224 177.74C104.154 177.658 104.066 177.594 103.968 177.551C103.869 177.509 103.761 177.489 103.654 177.495C103.547 177.5 103.442 177.531 103.348 177.583C103.254 177.636 103.173 177.709 103.112 177.798C103.051 177.886 103.011 177.988 102.996 178.094C102.98 178.201 102.989 178.309 103.022 178.412Z" fill="#263238"/>
<path d="M103.534 175.674L105.093 176.636C105.151 176.446 105.148 176.244 105.085 176.056C105.022 175.869 104.902 175.705 104.742 175.59C104.553 175.489 104.339 175.444 104.126 175.459C103.912 175.474 103.707 175.548 103.534 175.674Z" fill="#263238"/>
<path d="M97.7215 175.905L96.2684 177.029C96.193 176.846 96.1754 176.644 96.2181 176.451C96.2608 176.257 96.3616 176.082 96.5071 175.948C96.6857 175.829 96.8939 175.762 97.1083 175.754C97.3228 175.747 97.5351 175.799 97.7215 175.905Z" fill="#263238"/>
<path opacity="0.2" d="M93.72 186.85C93.3398 186.363 93.0692 185.801 92.9268 185.2C93.2771 185.928 93.8499 186.525 94.5624 186.906L94.6326 186.941C96.0504 187.644 97.595 188.054 99.1746 188.148V189.307C98.2611 189.23 97.3605 189.041 96.4929 188.745C95.4079 188.388 94.4464 187.731 93.72 186.85Z" fill="black"/>
<path d="M204.629 82.3008C205.261 81.9357 205.773 82.2306 205.773 82.9536L205.815 98.6152C205.796 99.0106 205.682 99.3956 205.485 99.7386C205.287 100.082 205.01 100.373 204.678 100.588L167.62 121.985L167.563 103.733L204.629 82.3008Z" fill="#3AAE1F"/>
<g opacity="0.3">
<path d="M204.629 82.3008C205.261 81.9357 205.773 82.2306 205.773 82.9536L205.815 98.6152C205.796 99.0106 205.682 99.3956 205.485 99.7386C205.287 100.082 205.01 100.373 204.678 100.588L167.62 121.985L167.563 103.733L204.629 82.3008Z" fill="white"/>
</g>
<path d="M203.274 95.2737V96.5303L175.974 112.297V111.034L203.274 95.2737Z" fill="white"/>
<path d="M187.079 107.306L187.086 108.57L175.98 114.979V113.722L187.079 107.306Z" fill="white"/>
<path d="M203.26 92.5921L203.267 93.8557L175.966 109.616L175.959 108.359L203.26 92.5921Z" fill="white"/>
<path d="M203.253 89.9104L203.26 91.167L175.959 106.934V105.67L203.253 89.9104Z" fill="white"/>
<path d="M195.952 90.1772L195.959 92.6974L175.952 104.245L175.945 101.732L195.952 90.1772Z" fill="white"/>
<path d="M156.654 99.2049C160.993 96.6988 165.338 96.0951 168.665 97.9905C174.787 101.5 175.362 112.332 169.999 123.185L156.795 149.938L143.457 138.496C138.051 133.856 138.543 122.35 144.65 111.82C147.977 106.12 152.316 101.69 156.654 99.2049Z" fill="#3AAE1F"/>
<path d="M166.9 124.513C172.541 114.806 172.557 104.288 166.935 101.021C161.314 97.7544 152.183 102.976 146.542 112.684C140.901 122.392 140.885 132.91 146.507 136.177C152.129 139.443 161.259 134.221 166.9 124.513Z" fill="#455A64"/>
<path d="M156.773 135.175C160.452 133.069 163.793 129.559 166.335 125.446C164.569 124.577 162.579 124.273 160.634 124.575L158.718 124.856L152.561 126.021L147.935 128.766C146.091 129.858 144.665 131.536 143.885 133.533C146.307 137.541 151.165 138.412 156.773 135.175Z" fill="#3AAE1F"/>
<path opacity="0.2" d="M156.773 135.175C160.452 133.069 163.793 129.559 166.335 125.446C164.569 124.577 162.579 124.273 160.634 124.575L158.718 124.856L152.561 126.021L147.935 128.766C146.091 129.858 144.665 131.536 143.885 133.533C146.307 137.541 151.165 138.412 156.773 135.175Z" fill="white"/>
<path d="M145.984 113.722C145.984 114.08 146.04 114.424 146.061 114.803C146.152 115.754 146.03 116.714 145.703 117.611C145.275 118.643 144.425 119.479 144.151 120.56C144.026 121.059 144.032 121.582 144.17 122.077C144.308 122.573 144.574 123.023 144.939 123.385C145.305 123.747 145.759 124.007 146.256 124.139C146.753 124.271 147.276 124.272 147.774 124.14C147.567 123.388 147.475 122.61 147.5 121.83C147.591 122.876 148.63 123.691 149.606 124.042C150.618 124.333 151.676 124.426 152.723 124.315L156.415 124.175L160.719 124.007C161.486 124.022 162.249 123.889 162.965 123.613C163.561 123.29 164.06 122.814 164.412 122.234C164.763 121.655 164.954 120.992 164.966 120.314C164.944 118.872 164.608 117.451 163.983 116.151C164.905 115.221 165.478 114.002 165.605 112.699C165.733 111.396 165.408 110.089 164.685 108.998C165.072 108.845 165.4 108.57 165.618 108.215C165.836 107.86 165.933 107.444 165.894 107.029C165.855 106.615 165.683 106.224 165.403 105.915C165.123 105.607 164.75 105.398 164.341 105.319C163.638 105.279 162.934 105.379 162.27 105.614C161.091 105.828 159.883 105.828 158.704 105.614C157.517 105.446 156.345 105.186 155.194 105.102C154.228 105.012 153.254 105.105 152.323 105.376C149.779 107.803 147.639 110.621 145.984 113.722Z" fill="#263238"/>
<path d="M158.718 122.139V126.063C158.718 126.063 161.926 128.113 160.578 129.201C158.03 131.251 152.562 126.042 152.562 126.042V119.507L158.718 122.139Z" fill="#FFA8A7"/>
<path opacity="0.3" d="M152.575 119.507C153.523 122.315 156.963 124.456 158.732 124.877V122.139L152.575 119.507Z" fill="black"/>
<path d="M153.313 115.028C153.396 115.517 153.419 116.014 153.383 116.509C153.331 116.884 153.158 117.231 152.892 117.499C152.761 117.624 152.602 117.716 152.429 117.767C152.256 117.818 152.072 117.828 151.895 117.794C151.981 117.311 151.88 116.813 151.613 116.402C151.345 115.991 150.932 115.697 150.455 115.58C149.979 115.463 149.476 115.531 149.048 115.772C148.621 116.012 148.301 116.406 148.153 116.874C148.069 117.218 148.062 117.576 148.131 117.922C148.2 118.269 148.344 118.597 148.553 118.882C148.977 119.451 149.531 119.911 150.168 120.223C150.53 120.344 150.922 120.335 151.278 120.196C151.633 120.058 151.928 119.799 152.112 119.465C153.987 121.837 157.258 123.628 160.326 123.368C161.165 123.323 161.974 123.038 162.657 122.546C163.815 121.648 163.899 120.293 164.061 118.959C164.277 117.266 164.265 115.552 164.025 113.863C163.711 111.501 162.57 109.327 160.803 107.727C159.736 112.81 155.089 114.67 153.313 115.028Z" fill="#FFA8A7"/>
<path d="M159.694 114.466L161.793 117.057L159.842 117.724L159.694 114.466Z" fill="#F28F8F"/>
<path d="M158.051 118.987L159.687 119.507C159.582 119.699 159.416 119.852 159.216 119.941C159.015 120.029 158.791 120.05 158.578 119.998C158.387 119.917 158.23 119.771 158.134 119.587C158.038 119.403 158.009 119.191 158.051 118.987Z" fill="#F28F8F"/>
<path opacity="0.3" d="M158.051 118.987L159.687 119.507C159.582 119.699 159.416 119.852 159.216 119.941C159.015 120.029 158.791 120.05 158.578 119.998C158.387 119.917 158.23 119.771 158.134 119.587C158.038 119.403 158.009 119.191 158.051 118.987Z" fill="black"/>
<path d="M159.112 119.977C158.938 120.029 158.752 120.029 158.578 119.977C158.432 119.923 158.305 119.828 158.211 119.704C158.118 119.579 158.062 119.43 158.052 119.275C158.27 119.24 158.493 119.282 158.684 119.394C158.79 119.458 158.883 119.543 158.956 119.643C159.03 119.743 159.083 119.856 159.112 119.977Z" fill="#F28F8F"/>
<path d="M156.808 115.028C156.811 115.104 156.829 115.179 156.861 115.248C156.893 115.318 156.938 115.38 156.994 115.432C157.05 115.483 157.116 115.523 157.188 115.549C157.26 115.575 157.336 115.586 157.412 115.583C157.527 115.578 157.639 115.54 157.732 115.472C157.826 115.404 157.897 115.31 157.937 115.202C157.977 115.093 157.984 114.976 157.957 114.863C157.929 114.751 157.87 114.649 157.784 114.571C157.699 114.493 157.593 114.442 157.479 114.424C157.365 114.407 157.248 114.424 157.143 114.473C157.039 114.522 156.951 114.6 156.891 114.699C156.832 114.798 156.803 114.913 156.808 115.028Z" fill="#263238"/>
<path d="M161.681 114.6C161.687 114.715 161.726 114.826 161.795 114.918C161.864 115.011 161.958 115.081 162.067 115.12C162.175 115.158 162.292 115.164 162.404 115.136C162.516 115.108 162.617 115.048 162.694 114.963C162.772 114.877 162.822 114.771 162.839 114.657C162.856 114.543 162.839 114.427 162.79 114.323C162.741 114.219 162.662 114.131 162.563 114.072C162.465 114.012 162.351 113.984 162.236 113.989C162.082 113.998 161.937 114.067 161.834 114.181C161.73 114.295 161.675 114.446 161.681 114.6Z" fill="#263238"/>
<path d="M162.144 112.255L163.477 113.09C163.525 112.927 163.523 112.754 163.47 112.592C163.418 112.43 163.317 112.288 163.183 112.185C163.02 112.1 162.836 112.061 162.653 112.074C162.47 112.086 162.293 112.149 162.144 112.255Z" fill="#263238"/>
<path d="M157.159 112.41L155.91 113.357C155.847 113.201 155.834 113.029 155.871 112.865C155.909 112.7 155.996 112.551 156.121 112.438C156.273 112.336 156.452 112.279 156.636 112.274C156.82 112.269 157.001 112.316 157.159 112.41Z" fill="#263238"/>
<path d="M219.841 224.884C212.653 229.875 204.552 233.308 198.543 240.026C187.311 252.536 187.065 272.662 195.875 286.969C204.685 301.276 221.077 309.868 237.763 311.834C255.271 313.898 273.643 309.026 287.374 298.011C301.105 286.997 309.838 269.7 309.838 252.065C309.838 234.431 300.796 216.888 286.033 207.257C272.562 198.468 253.207 195.962 239.701 206.014C232.87 211.097 228.315 218.601 221.498 223.698C220.951 224.105 220.396 224.498 219.841 224.884Z" fill="#3AAE1F"/>
<path opacity="0.3" d="M219.841 224.884C212.653 229.875 204.552 233.308 198.543 240.026C187.311 252.536 187.065 272.662 195.875 286.969C204.685 301.276 221.077 309.868 237.763 311.834C255.271 313.898 273.643 309.026 287.374 298.011C301.105 286.997 309.838 269.7 309.838 252.065C309.838 234.431 300.796 216.888 286.033 207.257C272.562 198.468 253.207 195.962 239.701 206.014C232.87 211.097 228.315 218.601 221.498 223.698C220.951 224.105 220.396 224.498 219.841 224.884Z" fill="black"/>
<path opacity="0.1" d="M222.775 298.166C222.775 298.046 222.775 297.927 222.825 297.808C223.422 293.909 225.221 290.295 227.971 287.467C230.72 284.64 234.283 282.74 238.163 282.034C245.109 280.707 251.764 278.159 257.819 274.508C262.108 271.911 266.166 268.731 270.989 267.32C275.675 265.976 280.679 266.268 285.176 268.148C281.133 263.894 274.19 262.027 268.644 263.936C272.484 258.06 275.861 251.728 277.18 244.835C278.5 237.941 277.566 230.381 273.411 224.723C271.638 222.312 269.352 220.325 266.719 218.903C264.086 217.481 261.171 216.661 258.183 216.502C255.194 216.342 252.208 216.846 249.438 217.979C246.669 219.112 244.185 220.844 242.165 223.052C238.051 227.559 235.727 233.891 233.039 239.366C231.094 243.29 229.086 247.313 225.885 250.303C221.055 254.824 214.113 256.453 209.1 260.777C203.428 265.691 200.978 273.512 200.95 281.009C201.044 286.069 201.782 291.096 203.147 295.968C209.019 301.57 216.02 305.852 223.681 308.527C222.564 305.194 222.254 301.643 222.775 298.166Z" fill="black"/>
<path d="M300.444 249.651C300.221 237.478 295.689 225.778 287.653 216.632C279.617 207.485 268.598 201.485 256.555 199.696C254.884 199.861 253.226 200.14 251.592 200.532C264.253 201.205 276.19 206.647 285.002 215.764C293.813 224.88 298.847 236.995 299.09 249.672C299.405 266.077 291.368 282.799 277.615 294.403C266.833 303.529 252.505 309.524 236.752 311.7L237.763 311.827C239.167 311.995 240.571 312.115 242.024 312.192C256.015 309.475 268.7 303.705 278.493 295.442C292.568 283.578 300.774 266.463 300.444 249.651Z" fill="white"/>
<path d="M203.498 295.098C203.993 297.694 204.274 300.326 204.34 302.967L206.208 302.265C207.089 301.938 208.047 301.876 208.964 302.085C209.88 302.295 210.716 302.767 211.367 303.445L211.459 303.543C211.793 303.891 212.248 304.098 212.73 304.12C213.212 304.143 213.684 303.979 214.049 303.662C214.245 303.492 214.403 303.283 214.514 303.049C214.625 302.815 214.687 302.56 214.695 302.301L214.948 294.361L203.498 295.098Z" fill="#916160"/>
<path d="M210.701 324.631C206.826 328.773 199.693 332.395 194.513 328.843L195.095 330.156C200.276 333.666 207.408 330.072 211.283 325.944C215.159 321.816 212.645 318.924 216.127 315.252C217.442 313.992 218.471 312.465 219.146 310.774C218.991 310.381 218.844 309.861 218.662 309.271C217.906 310.995 216.853 312.573 215.552 313.933C212.07 317.618 214.576 320.489 210.701 324.631Z" fill="white"/>
<path d="M216.753 304.947C216.156 304.105 215.74 303.149 215.531 302.139C215.497 301.903 215.41 301.676 215.278 301.477C215.146 301.278 214.971 301.111 214.766 300.988L214.724 302.315C214.712 302.684 214.591 303.042 214.376 303.344C214.162 303.645 213.863 303.877 213.518 304.009C213.172 304.142 212.796 304.17 212.434 304.089C212.073 304.009 211.744 303.824 211.488 303.557L211.396 303.459C210.742 302.776 209.902 302.3 208.979 302.09C208.057 301.881 207.094 301.947 206.208 302.279L204.313 302.981C204.028 303.087 203.783 303.279 203.614 303.531C203.444 303.783 203.357 304.082 203.365 304.385C203.485 309.819 200.951 317.021 198.29 320.995C195.552 322.132 193.186 325.86 194.394 328.597L194.513 328.871C199.694 332.381 206.826 328.78 210.701 324.659C214.576 320.538 212.063 317.639 215.552 313.968C216.854 312.608 217.906 311.03 218.662 309.306C218.231 307.772 217.588 306.305 216.753 304.947Z" fill="#3AAE1F"/>
<path d="M209.17 312.795C209.324 312.858 209.496 312.861 209.652 312.803C209.808 312.746 209.937 312.632 210.013 312.484C210.09 312.337 210.108 312.166 210.065 312.005C210.022 311.845 209.921 311.706 209.781 311.616C208.646 310.975 207.364 310.638 206.06 310.638C204.757 310.638 203.475 310.975 202.34 311.616C202.221 312.044 202.101 312.473 201.968 312.894C203.057 312.254 204.293 311.909 205.556 311.891C206.819 311.874 208.064 312.186 209.17 312.795Z" fill="white"/>
<path d="M210.125 309.854C210.281 309.935 210.462 309.951 210.629 309.898C210.796 309.846 210.936 309.729 211.017 309.573C211.098 309.418 211.114 309.237 211.061 309.069C211.008 308.902 210.891 308.763 210.736 308.682C209.55 308.035 208.218 307.701 206.867 307.712C205.515 307.723 204.189 308.079 203.014 308.745C202.937 309.187 202.845 309.629 202.747 310.072C204.986 308.885 207.261 308.408 210.125 309.854Z" fill="white"/>
<path d="M208.125 315.716C208.28 315.797 208.462 315.813 208.629 315.76C208.796 315.707 208.936 315.59 209.017 315.435C209.098 315.279 209.113 315.098 209.061 314.931C209.008 314.764 208.891 314.624 208.736 314.543C207.626 313.916 206.376 313.58 205.102 313.567C203.828 313.553 202.571 313.863 201.449 314.466C201.288 314.929 201.112 315.379 200.937 315.821C202.023 315.183 203.257 314.839 204.517 314.82C205.777 314.802 207.02 315.11 208.125 315.716Z" fill="white"/>
<path d="M198.29 320.988C195.552 322.125 193.186 325.853 194.394 328.59L194.513 328.864C199.624 332.374 206.616 328.864 210.526 324.814C207.261 318.418 200.445 320.012 198.29 320.988Z" fill="white"/>
<path d="M206.98 318.608C207.136 318.683 207.316 318.694 207.481 318.637C207.645 318.581 207.78 318.462 207.857 318.306C207.937 318.153 207.952 317.975 207.901 317.811C207.85 317.647 207.736 317.509 207.584 317.429C206.473 316.802 205.221 316.467 203.945 316.456C202.669 316.445 201.412 316.758 200.29 317.365C200.058 317.871 199.82 318.355 199.588 318.826C201.834 317.597 204.116 317.12 206.98 318.608Z" fill="white"/>
<path d="M195.355 310.886C194.759 313.46 193.954 315.982 192.947 318.425L194.941 318.531C195.885 318.583 196.793 318.912 197.552 319.476C198.311 320.04 198.887 320.815 199.209 321.704L199.258 321.83C199.421 322.286 199.754 322.661 200.187 322.877C200.62 323.093 201.12 323.133 201.582 322.988C201.829 322.912 202.057 322.785 202.253 322.616C202.449 322.446 202.607 322.239 202.719 322.006L206.152 314.838L195.355 310.886Z" fill="#916160"/>
<path d="M190.027 340.826C184.811 343.052 176.822 343.487 173.509 338.159V339.605C176.822 344.926 184.811 344.519 190.027 342.265C195.243 340.012 194.105 336.397 198.774 334.438C200.487 333.819 202.046 332.837 203.344 331.56C203.344 331.139 203.435 330.605 203.505 329.987C202.118 331.262 200.516 332.282 198.774 332.999C194.105 334.958 195.222 338.594 190.027 340.826Z" fill="white"/>
<path d="M203.505 325.256C203.291 324.242 203.291 323.195 203.505 322.181C203.567 321.95 203.578 321.709 203.536 321.474C203.495 321.239 203.403 321.015 203.267 320.819L202.691 322.02C202.532 322.355 202.278 322.636 201.959 322.827C201.641 323.017 201.273 323.109 200.902 323.09C200.531 323.071 200.175 322.943 199.877 322.721C199.579 322.499 199.354 322.194 199.23 321.844L199.181 321.718C198.859 320.829 198.283 320.054 197.524 319.49C196.765 318.926 195.857 318.597 194.913 318.545L192.891 318.433C192.594 318.422 192.3 318.503 192.049 318.663C191.798 318.824 191.602 319.057 191.487 319.331C189.381 324.35 184.165 329.931 180.129 332.487C177.173 332.416 173.502 334.873 173.502 337.864V338.159C176.815 343.487 184.804 343.073 190.02 340.826C195.236 338.58 194.099 334.958 198.767 332.999C200.509 332.282 202.111 331.262 203.498 329.987C203.721 328.418 203.723 326.826 203.505 325.256Z" fill="#3AAE1F"/>
<path d="M193.403 329.377C193.521 329.501 193.68 329.579 193.851 329.594C194.021 329.61 194.192 329.562 194.33 329.461C194.464 329.353 194.551 329.197 194.57 329.026C194.59 328.855 194.542 328.684 194.435 328.548C193.655 327.504 192.618 326.679 191.425 326.154C190.232 325.629 188.923 325.421 187.626 325.551C187.345 325.895 187.064 326.253 186.77 326.576C188.023 326.427 189.294 326.606 190.457 327.098C191.621 327.589 192.636 328.374 193.403 329.377Z" fill="white"/>
<path d="M195.46 327.074C195.578 327.199 195.737 327.276 195.907 327.292C196.078 327.307 196.249 327.26 196.387 327.158C196.521 327.051 196.607 326.895 196.627 326.724C196.647 326.553 196.598 326.381 196.492 326.246C195.668 325.171 194.583 324.324 193.339 323.786C192.096 323.248 190.736 323.036 189.388 323.171C189.135 323.55 188.875 323.915 188.602 324.287C191.15 324.105 193.424 324.589 195.46 327.074Z" fill="white"/>
<path d="M191.269 331.623C191.379 331.76 191.539 331.848 191.713 331.867C191.888 331.886 192.063 331.835 192.2 331.725C192.336 331.615 192.424 331.455 192.443 331.281C192.462 331.106 192.411 330.932 192.301 330.795C191.537 329.777 190.528 328.969 189.369 328.444C188.209 327.919 186.937 327.694 185.668 327.79C185.331 328.148 184.965 328.492 184.643 328.822C185.895 328.676 187.164 328.858 188.325 329.349C189.487 329.84 190.501 330.623 191.269 331.623Z" fill="white"/>
<path d="M180.136 332.487C177.18 332.416 173.509 334.873 173.509 337.864V338.159C176.773 343.41 184.572 343.073 189.788 340.918C189.388 333.75 182.508 332.458 180.136 332.487Z" fill="white"/>
<path d="M189.066 333.778C189.183 333.903 189.342 333.98 189.513 333.996C189.684 334.011 189.854 333.964 189.992 333.862C190.126 333.755 190.213 333.599 190.233 333.428C190.252 333.257 190.204 333.085 190.098 332.95C189.335 331.926 188.325 331.114 187.162 330.588C185.999 330.063 184.722 329.841 183.45 329.945C183.035 330.31 182.621 330.647 182.207 330.991C184.755 330.809 187.03 331.293 189.066 333.778Z" fill="white"/>
<path d="M225.998 243.045L199.89 257.59C197.523 258.909 195.63 260.937 194.478 263.39C193.325 265.842 192.972 268.594 193.467 271.258L198.536 298.552L194.38 311.756C197.96 316.565 206.194 316.804 206.194 316.804C210.785 307.594 214.155 303.683 216.767 295.968C219.378 288.254 221.112 282.925 221.112 282.925L242.797 277C247.755 275.652 252.196 272.849 255.545 268.952C258.895 265.056 261 260.245 261.589 255.14C261.954 251.855 261.975 249.615 261.975 249.615L225.998 243.045Z" fill="#37474F"/>
<path opacity="0.2" d="M226.201 250.381C226.204 253.294 227.238 256.112 229.121 258.334L210.666 269.868C207.97 271.565 205.976 274.177 205.05 277.225L198.528 298.552L204.411 274.796C205.085 272.065 206.804 269.708 209.199 268.232L226.208 257.702C224.481 253.364 226.201 250.381 226.201 250.381Z" fill="black"/>
<path d="M220.248 229.861C218.388 233.371 205.141 231.799 205.696 226.056C209.178 218.791 220.143 223.48 220.248 229.861Z" fill="#3AAE1F"/>
<path d="M228.826 198.18H228.124C223.618 198.229 217.91 201.297 215.116 209.173L204.348 230.156L216.717 235.646L223.484 215.835L228.826 198.18Z" fill="#916160"/>
<path d="M220.143 212.108C219.28 214.586 219.224 217.26 219.09 219.879C218.957 222.497 218.648 225.67 217.448 228.001C216.125 227.086 214.543 226.623 212.936 226.682C211.33 226.74 209.785 227.316 208.532 228.324C207.637 229.076 206.947 230.042 206.524 231.132L216.682 235.639L223.45 215.828L226.812 204.919C225.278 205.612 223.897 206.606 222.752 207.84C221.607 209.075 220.72 210.525 220.143 212.108Z" fill="#7A4C4A"/>
<path d="M216.794 231.862C216.323 230.691 215.559 229.66 214.576 228.869C213.593 228.077 212.423 227.551 211.178 227.341C208.7 226.941 205.892 228.233 204.291 230.149C202.944 231.785 203.154 233.989 204.004 235.926C204.716 237.431 205.928 238.643 207.433 239.356C208.938 240.069 210.643 240.238 212.259 239.837C215.474 238.959 218.001 234.958 216.794 231.862Z" fill="#916160"/>
<path d="M228.826 198.18C223.435 197.583 216.569 198.882 205.695 226.056C212.105 219.696 220.248 229.861 220.248 229.861C224.902 218.924 233.129 200.623 233.129 200.623L228.826 198.18Z" fill="#3AAE1F"/>
<path opacity="0.2" d="M228.826 198.18C223.435 197.583 216.569 198.882 205.695 226.056C212.105 219.696 220.248 229.861 220.248 229.861C224.902 218.924 233.129 200.623 233.129 200.623L228.826 198.18Z" fill="white"/>
<path d="M264.65 261.69C254.19 270.381 232.821 249.349 221.357 245.6C224.867 237.59 224.867 230.282 224.165 222.202C223.463 214.122 218.718 199.984 227.739 198.334C239.785 195.983 245.871 198.145 255.706 200.7C269.816 221.03 265.373 246.52 264.65 261.69Z" fill="#3AAE1F"/>
<path opacity="0.7" d="M264.65 261.69C254.19 270.381 232.821 249.349 221.357 245.6C224.867 237.59 224.867 230.282 224.165 222.202C223.463 214.122 218.718 199.984 227.739 198.334C239.785 195.983 245.871 198.145 255.706 200.7C269.816 221.03 265.373 246.52 264.65 261.69Z" fill="white"/>
<path d="M232.982 194.249L233.453 199.472C233.476 199.877 233.373 200.279 233.158 200.623C232.867 201.168 232.755 201.79 232.837 202.402C232.918 203.014 233.19 203.585 233.614 204.035C234.288 204.544 235.108 204.822 235.952 204.828C237.544 204.912 239.136 204.659 240.624 204.086C242.112 203.512 243.462 202.631 244.587 201.5C244.818 201.265 244.999 200.984 245.12 200.677C245.241 200.369 245.298 200.041 245.289 199.71L244.945 186.457L232.982 194.249Z" fill="#916160"/>
<path d="M244.923 186.457L232.989 194.249L233.403 198.882C235.938 198.285 238.486 197.555 240.487 195.926C243.028 193.856 245.267 191.799 244.923 186.457Z" fill="#7A4C4A"/>
<path d="M248.574 178.433C249.767 177.03 250.362 175.215 250.23 173.378C250.018 171.475 249.098 169.721 247.654 168.464C248.144 167.56 248.362 166.534 248.282 165.509C248.202 164.484 247.828 163.504 247.205 162.687C246.536 161.917 245.658 161.357 244.677 161.077C243.696 160.796 242.655 160.807 241.68 161.107C241.126 160.337 240.409 159.698 239.581 159.236C238.752 158.774 237.832 158.499 236.885 158.433C234.99 158.306 233.102 158.643 231.817 160.033C231.066 159.581 230.221 159.307 229.347 159.231C228.474 159.156 227.594 159.281 226.777 159.598C225.936 159.969 225.187 160.518 224.581 161.208C223.975 161.898 223.526 162.711 223.267 163.592C222.332 163.415 221.368 163.477 220.464 163.775C219.56 164.072 218.747 164.594 218.1 165.291C216.829 166.695 216.415 169.377 216.977 171.188C216.588 171.766 216.325 172.419 216.206 173.105C216.086 173.791 216.112 174.495 216.282 175.17C216.452 175.846 216.763 176.478 217.193 177.025C217.624 177.573 218.165 178.024 218.781 178.348C218.605 179.759 218.914 181.187 219.658 182.398C220.402 183.609 221.536 184.53 222.873 185.01C223.315 186.09 224.011 187.046 224.902 187.798C225.793 188.55 226.853 189.074 227.991 189.328C230.341 189.735 232.756 189.542 235.011 188.766C240.515 187.081 244.79 182.813 248.574 178.433Z" fill="#263238"/>
<path d="M237.019 171.89C237.199 172.771 237.519 173.617 237.966 174.396C238.229 174.86 238.593 175.257 239.033 175.559C239.472 175.861 239.974 176.058 240.5 176.137C240.62 176.155 240.731 176.212 240.815 176.3C240.899 176.388 240.951 176.501 240.964 176.621L241.553 181.016C241.55 181.283 241.607 181.548 241.718 181.791C241.83 182.033 241.994 182.248 242.199 182.42C242.421 182.524 242.67 182.558 242.911 182.518C243.153 182.478 243.377 182.365 243.554 182.195C243.901 181.862 244.176 181.46 244.361 181.016C244.753 180.065 245.28 179.176 245.927 178.376C246.252 177.978 246.659 177.654 247.121 177.426C247.582 177.198 248.087 177.072 248.602 177.057C250.279 177.099 251.557 178.77 251.732 180.44C251.815 181.302 251.681 182.171 251.342 182.968C251.004 183.764 250.472 184.464 249.795 185.003C249.096 185.503 248.283 185.818 247.43 185.92C246.577 186.021 245.713 185.907 244.916 185.586C245.674 188.492 244.158 191.609 241.89 193.582C239.623 195.554 236.738 196.621 233.916 197.646C232.371 198.208 230.736 198.77 229.128 198.475C227.814 198.178 226.635 197.452 225.779 196.411C224.94 195.371 224.248 194.221 223.723 192.992C221.154 187.446 219.699 181.45 219.44 175.344C221.708 175.056 235.734 172.395 237.019 171.89Z" fill="#916160"/>
<path d="M229.213 182.954L226.84 189.201L230.982 189.25L229.213 182.954Z" fill="#F28F8F"/>
<path d="M229.213 182.954L226.84 189.201L230.982 189.25L229.213 182.954Z" fill="#7A4C4A"/>
<path d="M235.18 190.521L232.372 192.536C232.694 192.834 233.104 193.02 233.541 193.066C233.978 193.112 234.417 193.014 234.794 192.789C235.109 192.512 235.319 192.136 235.389 191.723C235.459 191.31 235.386 190.886 235.18 190.521Z" fill="#F28F8F"/>
<path opacity="0.4" d="M235.18 190.521L232.372 192.536C232.694 192.834 233.104 193.02 233.541 193.066C233.978 193.112 234.417 193.014 234.794 192.789C235.109 192.512 235.319 192.136 235.389 191.723C235.459 191.31 235.386 190.886 235.18 190.521Z" fill="black"/>
<path d="M233.783 193.069C234.149 193.08 234.51 192.982 234.821 192.789C235.073 192.582 235.258 192.306 235.352 191.995C235.447 191.684 235.448 191.352 235.355 191.041C234.918 191.115 234.52 191.335 234.225 191.665C233.898 192.057 233.739 192.561 233.783 193.069Z" fill="#F28F8F"/>
<path d="M235.046 182.167C235.107 182.389 235.101 182.624 235.028 182.843C234.955 183.061 234.82 183.253 234.638 183.394C234.456 183.536 234.237 183.62 234.007 183.637C233.778 183.654 233.549 183.602 233.348 183.489C233.148 183.376 232.986 183.206 232.882 183C232.778 182.795 232.738 182.563 232.765 182.335C232.793 182.106 232.888 181.891 233.037 181.716C233.187 181.542 233.385 181.415 233.607 181.353C233.755 181.311 233.91 181.3 234.062 181.318C234.215 181.336 234.362 181.385 234.496 181.461C234.63 181.536 234.747 181.638 234.842 181.759C234.936 181.88 235.006 182.019 235.046 182.167Z" fill="#263238"/>
<path d="M225.506 184.456C225.567 184.678 225.56 184.913 225.488 185.131C225.415 185.35 225.28 185.542 225.098 185.683C224.916 185.824 224.697 185.909 224.467 185.926C224.238 185.942 224.009 185.891 223.808 185.778C223.608 185.664 223.446 185.494 223.342 185.289C223.238 185.083 223.198 184.852 223.225 184.623C223.253 184.395 223.348 184.18 223.497 184.005C223.647 183.83 223.845 183.704 224.067 183.641C224.366 183.56 224.685 183.599 224.955 183.752C225.224 183.904 225.423 184.157 225.506 184.456Z" fill="#263238"/>
<path d="M223.155 180.314L221.147 182.736C220.952 182.457 220.847 182.125 220.847 181.785C220.847 181.444 220.952 181.112 221.147 180.833C221.4 180.569 221.722 180.38 222.077 180.289C222.432 180.197 222.805 180.206 223.155 180.314Z" fill="#263238"/>
<path d="M232.744 177.443L235.721 178.468C235.743 178.128 235.661 177.79 235.485 177.499C235.309 177.208 235.048 176.978 234.738 176.839C234.382 176.744 234.007 176.751 233.655 176.858C233.303 176.964 232.988 177.167 232.744 177.443Z" fill="#263238"/>
<path opacity="0.15" d="M229.557 251.111C229.557 251.111 229.557 251.111 229.557 251.069V251.033C229.56 251.02 229.56 251.005 229.557 250.991C229.554 250.977 229.554 250.963 229.557 250.949V250.907V250.865L221.357 235.772L220.248 237.043L228.342 252.122C228.394 252.206 228.429 252.298 228.447 252.395C228.454 252.424 228.455 252.454 228.449 252.483C228.442 252.513 228.43 252.54 228.412 252.564L229.521 251.286C229.528 251.268 229.528 251.248 229.521 251.23C229.525 251.214 229.525 251.197 229.521 251.181C229.54 251.161 229.552 251.137 229.557 251.111Z" fill="black"/>
<path opacity="0.2" d="M221.336 235.702V235.66V235.611L221.301 235.568C221.302 235.552 221.302 235.536 221.301 235.519V235.47L221.259 235.421L221.224 235.372L221.188 235.33L221.153 235.288V235.253V235.217L221.041 235.112H220.999H220.957L220.915 235.077H220.865H220.816L220.76 235.042L211.452 229.805H211.396H211.346H211.29H211.241H211.192H211.143H211.094H211.045H210.995H210.82C210.794 229.804 210.768 229.808 210.744 229.818C210.719 229.828 210.697 229.842 210.679 229.861L209.57 231.132C209.619 231.076 209.711 231.062 209.844 231.083C210.025 231.129 210.197 231.203 210.357 231.3L219.665 236.537C219.847 236.644 220.023 236.761 220.192 236.888C220.37 237.024 220.541 237.169 220.704 237.323C220.861 237.471 221.008 237.628 221.146 237.794C221.261 237.933 221.364 238.081 221.455 238.236L222.564 236.965L221.336 235.702Z" fill="black"/>
<path d="M261.659 204.8C260.339 202.532 258.317 200.939 255.699 200.735L254.133 203.129C252.502 206.113 251.665 209.466 251.704 212.866L251.985 238.018L250.139 238.791C244.947 241.031 239.519 242.679 233.958 243.705C231.057 241.407 227.451 240.184 223.751 240.244L225.155 242.799C222.55 244.463 216.675 241.465 216.675 241.465C216.239 245.13 218.619 248.934 221.764 250.865C224.909 252.795 254.99 249.959 261.364 245.832C265.576 243.115 264.565 217.176 264.565 217.176C264.86 212.852 263.847 208.54 261.659 204.8Z" fill="#916160"/>
<path d="M210.294 233.841C210.097 234.834 209.982 235.841 209.95 236.853C210.188 239.257 211.209 241.517 212.856 243.283C213.196 243.669 213.622 243.97 214.099 244.161C214.34 244.254 214.601 244.282 214.856 244.243C215.111 244.203 215.351 244.098 215.552 243.936C215.906 243.513 216.086 242.971 216.058 242.42C216.133 241.606 216.088 240.785 215.924 239.984C215.752 239.178 215.296 238.46 214.64 237.962C214.126 237.665 213.58 237.429 213.011 237.26C212.452 237.025 211.955 236.665 211.558 236.207L210.294 233.841Z" fill="#916160"/>
<path d="M255.699 200.735C267.128 203.199 266.04 214.775 267.142 221.985C267.844 226.26 268.911 235.653 268.911 235.653C262.684 241.409 251.628 237.618 248.876 234.628C249.915 220.152 247.802 203.192 255.699 200.735Z" fill="#3AAE1F"/>
<path opacity="0.2" d="M255.699 200.735C267.128 203.199 266.04 214.775 267.142 221.985C267.844 226.26 268.911 235.653 268.911 235.653C262.684 241.409 251.628 237.618 248.876 234.628C249.915 220.152 247.802 203.192 255.699 200.735Z" fill="white"/>
<path d="M229.556 251.111C229.556 251.111 229.556 251.111 229.556 251.069V251.033C229.559 251.02 229.559 251.005 229.556 250.991C229.553 250.977 229.553 250.963 229.556 250.949V250.907V250.865L221.357 235.772V235.73V235.688V235.639L221.322 235.596C221.323 235.58 221.323 235.564 221.322 235.547V235.498L221.28 235.449L221.245 235.4L221.21 235.358L221.175 235.316V235.281V235.245L221.062 235.14H221.02H220.978L220.936 235.105H220.887H220.838L220.781 235.07L211.473 229.833H211.417H211.368H211.311H211.262H211.213H211.164H211.115H211.066H211.017H210.841C210.815 229.832 210.789 229.836 210.765 229.846C210.741 229.856 210.719 229.87 210.701 229.889L209.592 231.16H209.627C209.535 231.23 209.528 231.377 209.662 231.623L217.763 246.702C218.213 247.401 218.825 247.981 219.546 248.394L228.854 253.631C229.339 253.898 229.627 253.905 229.662 253.708C229.662 253.708 229.662 253.778 229.662 253.792L230.771 252.515C230.777 252.497 230.777 252.477 230.771 252.459C230.774 252.442 230.774 252.426 230.771 252.409C230.856 252.33 230.925 252.234 230.973 252.128C231.021 252.021 231.048 251.907 231.052 251.79C231.056 251.673 231.037 251.557 230.996 251.448C230.955 251.338 230.893 251.238 230.813 251.153C230.733 251.068 230.637 250.999 230.531 250.951C230.425 250.902 230.31 250.875 230.193 250.872C230.077 250.868 229.96 250.887 229.851 250.928C229.742 250.969 229.642 251.031 229.556 251.111ZM208.56 229.875C208.56 229.875 208.595 229.875 208.623 229.875C208.602 229.874 208.581 229.874 208.56 229.875ZM219.237 235.884C219.321 235.962 219.412 236.025 219.49 236.102C219.42 236.025 219.328 235.962 219.244 235.884H219.237ZM228.433 252.395C228.428 252.288 228.394 252.184 228.335 252.093C228.387 252.177 228.422 252.27 228.44 252.367C228.44 252.367 228.44 252.381 228.44 252.395H228.433Z" fill="#E0E0E0"/>
<path d="M333.417 271.49L321.813 271.827L310.209 271.49C309.711 279.324 311.234 287.313 313.347 291.216C313.849 292.216 314.652 293.034 315.643 293.554C319.069 295.526 324.6 295.526 328.005 293.554C329.014 293.028 329.82 292.184 330.301 291.153C332.4 287.229 333.916 279.296 333.417 271.49Z" fill="white"/>
<path d="M330.006 266.737C334.555 269.363 334.576 273.617 330.062 276.242C325.549 278.868 318.192 278.868 313.65 276.242C309.108 273.617 309.08 269.363 313.593 266.737C318.107 264.112 325.443 264.112 330.006 266.737Z" fill="#EBEBEB"/>
<path d="M328.195 267.783C331.74 269.826 331.761 273.147 328.237 275.196C324.713 277.246 318.978 277.246 315.433 275.196C311.888 273.147 311.867 269.826 315.391 267.783C318.915 265.74 324.65 265.733 328.195 267.783Z" fill="#E0E0E0"/>
<g opacity="0.15">
<path d="M328.195 267.783C331.74 269.826 331.761 273.147 328.237 275.196C324.713 277.246 318.978 277.246 315.433 275.196C311.888 273.147 311.867 269.826 315.391 267.783C318.915 265.74 324.65 265.733 328.195 267.783Z" fill="black"/>
</g>
<path d="M340.894 221.971C314.737 230.535 314.505 248.029 320.402 260.489C321.883 263.01 326.383 264.364 330.3 248.864L323.435 249.749L331.438 245.691L333.544 239.479L326.875 239.97L335.341 236.411C336.893 231.488 338.747 226.665 340.894 221.971Z" fill="#3AAE1F"/>
<path opacity="0.2" d="M340.894 221.971C314.737 230.535 314.505 248.029 320.402 260.489C321.883 263.01 326.383 264.364 330.3 248.864L323.435 249.749L331.438 245.691L333.544 239.479L326.875 239.97L335.341 236.411C336.893 231.488 338.747 226.665 340.894 221.971Z" fill="black"/>
<path opacity="0.2" d="M340.894 221.971C314.737 230.535 314.505 248.029 320.402 260.489C321.883 263.01 326.383 264.364 330.3 248.864L323.435 249.749L331.438 245.691L333.544 239.479L326.875 239.97L335.341 236.411C336.893 231.488 338.747 226.665 340.894 221.971Z" fill="white"/>
<path d="M333.515 226.344C319.728 236.811 318.479 248.808 322.375 261.339C320.978 250.31 319.475 239.156 333.515 226.344Z" fill="white"/>
<path d="M296.598 239.738C322.375 243.368 325.506 259.626 322.08 272.206C321.119 274.803 317.166 276.811 310.932 263.031L317.475 262.715L309.346 260.265L306.377 254.817L312.695 254.171L304.214 252.262C301.935 247.935 299.392 243.752 296.598 239.738Z" fill="#3AAE1F"/>
<path opacity="0.2" d="M296.598 239.738C322.375 243.368 325.506 259.626 322.08 272.206C321.119 274.803 317.166 276.811 310.932 263.031L317.475 262.715L309.346 260.265L306.377 254.817L312.695 254.171L304.214 252.262C301.935 247.935 299.392 243.752 296.598 239.738Z" fill="white"/>
<path opacity="0.1" d="M296.598 239.738C322.375 243.368 325.506 259.626 322.08 272.206C321.119 274.803 317.166 276.811 310.932 263.031L317.475 262.715L309.346 260.265L306.377 254.817L312.695 254.171L304.214 252.262C301.935 247.935 299.392 243.752 296.598 239.738Z" fill="black"/>
<path d="M304.215 242.588C318.774 250.044 321.947 261.044 320.403 273.329C319.855 262.827 319.385 252.192 304.215 242.588Z" fill="white"/>
<path d="M348.44 245.832C324.797 246.218 320.157 260.518 321.835 272.241C322.41 274.691 325.766 276.944 332.912 265.221L327.05 264.203L334.653 262.904L337.938 258.327L332.322 257.043L340.178 256.27C342.715 252.625 345.475 249.139 348.44 245.832Z" fill="#3AAE1F"/>
<path d="M341.237 247.545C327.261 252.634 323.189 262.167 323.21 273.441C324.895 264.035 326.495 254.501 341.237 247.545Z" fill="white"/>
<path opacity="0.2" d="M348.44 245.832C324.797 246.218 320.157 260.518 321.835 272.241C322.41 274.691 325.766 276.944 332.912 265.221L327.05 264.203L334.653 262.904L337.938 258.327L332.322 257.043L340.178 256.27C342.715 252.625 345.475 249.139 348.44 245.832Z" fill="white"/>
</g>
<defs>
<clipPath id="clip0_643_6735">
<rect width="375" height="812" rx="20" fill="white"/>
</clipPath>
</defs>
</svg>
