<svg width="37" height="36" viewBox="0 0 37 36" fill="none" xmlns="http://www.w3.org/2000/svg">
<g clip-path="url(#clip0_643_2018)">
<path d="M18.4271 8.4931C15.6068 8.49346 12.8125 9.70558 13.1063 12.1277L13.8263 17.3923C13.9526 18.3186 14.5787 19.8 15.5136 19.8H15.5802L16.3459 28.6311C16.379 29.0286 16.667 29.3511 17.0659 29.3511H19.9459C20.3448 29.3511 20.6328 29.0286 20.6659 28.6311L21.4316 19.8H21.4986C22.4335 19.8 23.0592 18.3186 23.1859 17.3927L23.9059 12.1273C24.0945 9.70342 21.2477 8.49238 18.4271 8.4931Z" fill="#3AAE1F"/>
<path d="M18.5085 18.3269L18.4912 18.3723C18.497 18.3586 18.5009 18.3445 18.5067 18.3309L18.5085 18.3269Z" fill="#3AAE1F"/>
<path d="M18.4997 7.56C20.5874 7.56 22.2797 5.86764 22.2797 3.78C22.2797 1.69236 20.5874 0 18.4997 0C16.4121 0 14.7197 1.69236 14.7197 3.78C14.7197 5.86764 16.4121 7.56 18.4997 7.56Z" fill="#3AAE1F"/>
<path d="M22.4319 24.8731C22.4013 25.223 22.3689 25.5722 22.3383 25.9221C25.561 26.3772 27.95 27.4097 28.22 28.6869C28.6221 30.5863 22.4089 31.4409 18.4064 31.401C14.4039 31.3607 8.30516 30.5863 8.83832 28.6866C9.18824 27.4399 11.5426 26.4279 14.6811 25.9567C14.6498 25.6057 14.6142 25.2547 14.5839 24.9041C10.5498 25.349 7.1888 26.4445 5.846 27.8726H1.30244L0.5 29.5369H5.23976C5.60804 31.4953 9.71348 33.1859 15.584 33.6128L15.3831 36H21.1935L21.1352 33.6132C27.0356 33.1859 31.2573 31.4953 31.7602 29.5369H36.5L35.8124 27.8726H31.2688C29.9934 26.4085 26.5716 25.295 22.4319 24.8731Z" fill="#3AAE1F"/>
</g>
<defs>
<clipPath id="clip0_643_2018">
<rect width="36" height="36" fill="white" transform="translate(0.5)"/>
</clipPath>
</defs>
</svg>
