<svg width="32" height="32" viewBox="0 0 32 32" fill="none" xmlns="http://www.w3.org/2000/svg">
<path d="M8.87533 9.66669C10.1351 9.66669 11.3433 9.16624 12.2341 8.27544C13.1249 7.38465 13.6253 6.17647 13.6253 4.91669C13.6253 3.65691 13.1249 2.44873 12.2341 1.55793C11.3433 0.667132 10.1351 0.166687 8.87533 0.166687C7.61555 0.166687 6.40737 0.667132 5.51657 1.55793C4.62577 2.44873 4.12533 3.65691 4.12533 4.91669C4.12533 6.17647 4.62577 7.38465 5.51657 8.27544C6.40737 9.16624 7.61555 9.66669 8.87533 9.66669ZM0.166992 14.0494C0.166992 12.5009 1.41941 11.25 2.96633 11.25H10.5141C9.95871 12.2129 9.66656 13.3051 9.66699 14.4167C9.66694 15.3152 9.85808 16.2034 10.2277 17.0224C10.5973 17.8414 11.137 18.5723 11.8108 19.1667H10.0913C9.19896 19.1667 8.32783 19.439 7.59425 19.9471C6.86066 20.4552 6.29952 21.175 5.98574 22.0104C3.61391 21.4309 2.14299 20.1373 1.27691 18.6964C0.166992 16.8487 0.166992 14.9487 0.166992 14.6178V14.0494ZM22.3337 14.4167C22.3341 13.3051 22.0419 12.2129 21.4866 11.25H29.0343C30.5828 11.25 31.8337 12.5024 31.8337 14.0494V14.6194C31.8337 14.9471 31.8337 16.8487 30.7253 18.6964C29.8577 20.1373 28.3867 21.4309 26.0149 22.0104C25.7011 21.175 25.14 20.4552 24.4064 19.9471C23.6728 19.439 22.8017 19.1667 21.9093 19.1667H20.1898C20.8637 18.5723 21.4033 17.8414 21.7729 17.0224C22.1426 16.2034 22.3337 15.3152 22.3337 14.4167ZM27.8753 4.91669C27.8753 6.17647 27.3749 7.38465 26.4841 8.27544C25.5933 9.16624 24.3851 9.66669 23.1253 9.66669C21.8655 9.66669 20.6574 9.16624 19.7666 8.27544C18.8758 7.38465 18.3753 6.17647 18.3753 4.91669C18.3753 3.65691 18.8758 2.44873 19.7666 1.55793C20.6574 0.667132 21.8655 0.166687 23.1253 0.166687C24.3851 0.166687 25.5933 0.667132 26.4841 1.55793C27.3749 2.44873 27.8753 3.65691 27.8753 4.91669ZM7.29199 23.5494C7.29199 22.0009 8.54441 20.75 10.0913 20.75H21.9093C23.4562 20.75 24.7087 22.0024 24.7087 23.5494V24.1194C24.7087 24.4471 24.7087 26.3487 23.6003 28.1964C22.4239 30.1503 20.1376 31.8334 16.0003 31.8334C11.8631 31.8334 9.57516 30.1503 8.40032 28.1964C7.29199 26.3487 7.29199 24.4487 7.29199 24.1178V23.5494ZM16.0003 19.1667C16.6241 19.1667 17.2418 19.0438 17.8181 18.8051C18.3944 18.5664 18.918 18.2165 19.3591 17.7754C19.8002 17.3344 20.15 16.8107 20.3888 16.2344C20.6275 15.6581 20.7503 15.0405 20.7503 14.4167C20.7503 13.7929 20.6275 13.1752 20.3888 12.5989C20.15 12.0226 19.8002 11.499 19.3591 11.0579C18.918 10.6169 18.3944 10.267 17.8181 10.0283C17.2418 9.78955 16.6241 9.66669 16.0003 9.66669C14.7405 9.66669 13.5324 10.1671 12.6416 11.0579C11.7508 11.9487 11.2503 13.1569 11.2503 14.4167C11.2503 15.6765 11.7508 16.8846 12.6416 17.7754C13.5324 18.6662 14.7405 19.1667 16.0003 19.1667Z" fill="#3AAE1F"/>
</svg>
