<svg width="34" height="34" viewBox="0 0 34 34" fill="none" xmlns="http://www.w3.org/2000/svg">
<path d="M2.71443 18.7857H13.4287C13.9023 18.7857 14.3565 18.5976 14.6914 18.2627C15.0263 17.9278 15.2144 17.4736 15.2144 17V2.7143C15.2144 2.2407 15.0263 1.7865 14.6914 1.45161C14.3565 1.11673 13.9023 0.928589 13.4287 0.928589H2.71443C2.24082 0.928589 1.78662 1.11673 1.45173 1.45161C1.11685 1.7865 0.928711 2.2407 0.928711 2.7143V17C0.928711 17.4736 1.11685 17.9278 1.45173 18.2627C1.78662 18.5976 2.24082 18.7857 2.71443 18.7857ZM0.928711 31.2857C0.928711 31.7593 1.11685 32.2135 1.45173 32.5484C1.78662 32.8833 2.24082 33.0714 2.71443 33.0714H13.4287C13.9023 33.0714 14.3565 32.8833 14.6914 32.5484C15.0263 32.2135 15.2144 31.7593 15.2144 31.2857V24.1429C15.2144 23.6693 15.0263 23.2151 14.6914 22.8802C14.3565 22.5453 13.9023 22.3572 13.4287 22.3572H2.71443C2.24082 22.3572 1.78662 22.5453 1.45173 22.8802C1.11685 23.2151 0.928711 23.6693 0.928711 24.1429V31.2857ZM18.7859 31.2857C18.7859 31.7593 18.974 32.2135 19.3089 32.5484C19.6438 32.8833 20.098 33.0714 20.5716 33.0714H31.2859C31.7595 33.0714 32.2137 32.8833 32.5485 32.5484C32.8834 32.2135 33.0716 31.7593 33.0716 31.2857V18.7857C33.0716 18.3121 32.8834 17.8579 32.5485 17.523C32.2137 17.1882 31.7595 17 31.2859 17H20.5716C20.098 17 19.6438 17.1882 19.3089 17.523C18.974 17.8579 18.7859 18.3121 18.7859 18.7857V31.2857ZM20.5716 13.4286H31.2859C31.7595 13.4286 32.2137 13.2405 32.5485 12.9056C32.8834 12.5707 33.0716 12.1165 33.0716 11.6429V2.7143C33.0716 2.2407 32.8834 1.7865 32.5485 1.45161C32.2137 1.11673 31.7595 0.928589 31.2859 0.928589H20.5716C20.098 0.928589 19.6438 1.11673 19.3089 1.45161C18.974 1.7865 18.7859 2.2407 18.7859 2.7143V11.6429C18.7859 12.1165 18.974 12.5707 19.3089 12.9056C19.6438 13.2405 20.098 13.4286 20.5716 13.4286Z" fill="#3AAE1F"/>
</svg>
