<svg width="24" height="32" viewBox="0 0 24 32" fill="none" xmlns="http://www.w3.org/2000/svg">
<path fill-rule="evenodd" clip-rule="evenodd" d="M13.5837 1.75002C13.5837 1.33009 13.4169 0.927367 13.12 0.630435C12.823 0.333502 12.4203 0.166687 12.0004 0.166687C11.5804 0.166687 11.1777 0.333502 10.8808 0.630435C10.5838 0.927367 10.417 1.33009 10.417 1.75002V2.93752H9.53512C7.83783 2.93741 6.2043 3.58414 4.96708 4.74606C3.72986 5.90798 2.98195 7.49774 2.87562 9.19169L2.5257 14.7872C2.39227 16.9206 1.67592 18.9766 0.4547 20.731C0.202369 21.0937 0.0481906 21.5155 0.00715894 21.9554C-0.0338727 22.3954 0.039639 22.8384 0.220545 23.2415C0.40145 23.6446 0.683592 23.994 1.03953 24.2558C1.39547 24.5175 1.81309 24.6827 2.25178 24.7353L7.6462 25.3813V27.0834C7.6462 28.2382 8.10494 29.3457 8.92151 30.1622C9.73807 30.9788 10.8456 31.4375 12.0004 31.4375C13.1552 31.4375 14.2627 30.9788 15.0792 30.1622C15.8958 29.3457 16.3545 28.2382 16.3545 27.0834V25.3813L21.7489 24.7337C22.1874 24.681 22.6047 24.5158 22.9604 24.2541C23.3162 23.9924 23.5982 23.6432 23.779 23.2404C23.9599 22.8375 24.0335 22.3947 23.9927 21.955C23.9518 21.5153 23.798 21.0937 23.546 20.731C22.3247 18.9766 21.6084 16.9207 21.475 14.7872L21.1251 9.19327C21.0192 7.49904 20.2714 5.90889 19.0342 4.74664C17.7969 3.58439 16.1632 2.93743 14.4656 2.93752H13.5837V1.75002ZM10.0212 27.0834C10.0212 27.6083 10.2297 28.1117 10.6009 28.4828C10.9721 28.854 11.4755 29.0625 12.0004 29.0625C12.5253 29.0625 13.0287 28.854 13.3998 28.4828C13.771 28.1117 13.9795 27.6083 13.9795 27.0834V25.8959H10.0212V27.0834Z" fill="#3AAE1F"/>
</svg>
