<svg width="31" height="35" viewBox="0 0 31 35" fill="none" xmlns="http://www.w3.org/2000/svg">
<path d="M20.1247 24.3125L24.653 26.9884L23.4655 28.92L17.7497 25.5V17.5834H20.1247V24.3125ZM30.4163 23.9167C30.4163 30.0442 25.4605 35 19.333 35C16.3088 35 13.5855 33.7967 11.5905 31.8334H3.49967C1.74217 31.8334 0.333008 30.4242 0.333008 28.6667V3.33335C0.333008 2.4935 0.666638 1.68805 1.2605 1.09418C1.85437 0.500317 2.65982 0.166687 3.49967 0.166687H5.08301V11.25L9.04134 8.87502L12.9997 11.25V0.166687H22.4997C23.3395 0.166687 24.145 0.500317 24.7388 1.09418C25.3327 1.68805 25.6663 2.4935 25.6663 3.33335V14.8284C28.5322 16.8392 30.4163 20.1484 30.4163 23.9167ZM27.2497 23.9167C27.2497 19.5467 23.703 16 19.333 16C14.963 16 11.4163 19.5467 11.4163 23.9167C11.4163 28.2867 14.963 31.8334 19.333 31.8334C23.703 31.8334 27.2497 28.2867 27.2497 23.9167Z" fill="#3AAE1F"/>
</svg>
