<svg width="23" height="15" viewBox="0 0 23 15" fill="none" xmlns="http://www.w3.org/2000/svg">
<path fill-rule="evenodd" clip-rule="evenodd" d="M9.79375 7.50825L9.79575 7.95087C9.81087 9.7065 9.91675 11.2729 10.0992 12.2655C10.0992 12.2834 10.2984 13.2679 10.4251 13.5955C10.6243 14.0693 10.9843 14.4712 11.4356 14.726C11.797 14.9078 12.176 15 12.5729 15C12.8848 14.9855 13.3993 14.8286 13.7664 14.697L14.0715 14.58C16.0924 13.7772 19.9555 11.1542 21.435 9.55025L21.5441 9.43812L22.0309 8.91275C22.3378 8.51063 22.5 8.01912 22.5 7.49038C22.5 7.01675 22.3555 6.543 22.0664 6.16025C21.9799 6.03625 21.8404 5.87713 21.7164 5.74275L21.2425 5.24675C19.6119 3.59465 16.0815 1.27729 14.2515 0.50945C14.2515 0.492937 13.1143 0.0179 12.5729 0H12.5006C11.6701 0 10.8942 0.47365 10.4974 1.23921C10.389 1.4485 10.285 1.85847 10.206 2.21854L10.0637 2.89839C9.9015 3.99165 9.79375 5.66875 9.79375 7.50825ZM1.87906 5.60213C0.84135 5.60213 0 6.45163 0 7.4995C0 8.54725 0.84135 9.39688 1.87906 9.39688L6.5031 8.98787C7.31719 8.98787 7.97717 8.32288 7.97717 7.4995C7.97717 6.67738 7.31719 6.011 6.5031 6.011L1.87906 5.60213Z" fill="#3AAE1F"/>
</svg>
